Exo2-Thin.ufo
<glyph name="quotedbl" format="2">
  <advance width="327"/>
  <unicode hex="0022"/>
  <outline>
    <contour>
      <point x="239" y="690" type="line"/>
      <point x="215" y="690" type="line"/>
      <point x="217" y="482" type="line"/>
      <point x="237" y="482" type="line"/>
    </contour>
    <contour>
      <point x="112" y="690" type="line"/>
      <point x="88" y="690" type="line"/>
      <point x="90" y="482" type="line"/>
      <point x="110" y="482" type="line"/>
    </contour>
  </outline>
</glyph>
<glyph name="parenleft" format="2">
  <advance width="355"/>
  <unicode hex="0028"/>
  <outline>
    <contour>
      <point x="306" y="790" type="line"/>
      <point x="143" y="714"/>
      <point x="69" y="564"/>
      <point x="69" y="312" type="curve" smooth="yes"/>
      <point x="69" y="62"/>
      <point x="143" y="-88"/>
      <point x="306" y="-165" type="curve"/>
      <point x="310" y="-147" type="line"/>
      <point x="163" y="-67"/>
      <point x="95" y="78"/>
      <point x="95" y="313" type="curve" smooth="yes"/>
      <point x="95" y="552"/>
      <point x="163" y="696"/>
      <point x="310" y="772" type="curve"/>
    </contour>
  </outline>
</glyph>
<glyph name="parenright" format="2">
  <advance width="355"/>
  <unicode hex="0029"/>
  <outline>
    <contour>
      <point x="49" y="790" type="curve"/>
      <point x="45" y="772" type="line"/>
      <point x="192" y="696"/>
      <point x="260" y="552"/>
      <point x="260" y="313" type="curve" smooth="yes"/>
      <point x="260" y="78"/>
      <point x="192" y="-67"/>
      <point x="45" y="-147" type="curve"/>
      <point x="49" y="-165" type="line"/>
      <point x="212" y="-88"/>
      <point x="286" y="62"/>
      <point x="286" y="312" type="curve" smooth="yes"/>
      <point x="286" y="564"/>
      <point x="212" y="714"/>
    </contour>
  </outline>
</glyph>
<glyph name="four" format="2">
  <advance width="595"/>
  <unicode hex="0034"/>
  <outline>
    <contour>
      <point x="308" y="690" type="line"/>
      <point x="282" y="690" type="line"/>
      <point x="59" y="274" type="line" smooth="yes"/>
      <point x="39" y="237"/>
      <point x="64" y="196"/>
      <point x="105" y="196" type="curve" smooth="yes"/>
      <point x="443" y="196" type="line"/>
      <point x="540" y="200" type="line"/>
      <point x="540" y="218" type="line"/>
      <point x="111" y="218" type="line" smooth="yes"/>
      <point x="84" y="218"/>
      <point x="69" y="243"/>
      <point x="82" y="267" type="curve" smooth="yes"/>
    </contour>
    <contour>
      <point x="458" y="560" type="line"/>
      <point x="440" y="560" type="line"/>
      <point x="433" y="443" type="line"/>
      <point x="433" y="0" type="line"/>
      <point x="458" y="0" type="line"/>
    </contour>
  </outline>
</glyph>
<glyph name="I" format="2">
  <advance width="231"/>
  <unicode hex="0049"/>
  <anchor x="115" y="0" name="bottom"/>
  <anchor x="128" y="0" name="ogonek"/>
  <anchor x="115" y="740" name="top"/>
  <outline>
    <contour>
      <point x="128" y="690" type="line"/>
      <point x="103" y="690" type="line"/>
      <point x="103" y="0" type="line"/>
      <point x="128" y="0" type="line"/>
    </contour>
  </outline>
</glyph>
<glyph name="K" format="2">
  <advance width="562"/>
  <unicode hex="004B"/>
  <guideline x="528" y="359" angle="270"/>
  <anchor x="285" y="0" name="bottom"/>
  <anchor x="285" y="690" name="top"/>
  <outline>
    <contour>
      <point x="512" y="690" type="line"/>
      <point x="482" y="690" type="line"/>
      <point x="231" y="360" type="line"/>
      <point x="499" y="0" type="line"/>
      <point x="529" y="0" type="line"/>
      <point x="281" y="336" type="line" smooth="yes"/>
      <point x="273" y="346"/>
      <point x="264" y="354"/>
      <point x="259" y="359" type="curve"/>
      <point x="259" y="361" type="line"/>
      <point x="264" y="365"/>
      <point x="273" y="374"/>
      <point x="281" y="385" type="curve" smooth="yes"/>
    </contour>
    <contour>
      <point x="127" y="690" type="line"/>
      <point x="103" y="690" type="line"/>
      <point x="103" y="0" type="line"/>
      <point x="127" y="0" type="line"/>
      <point x="127" y="263" type="line"/>
      <point x="127" y="296"/>
      <point x="127" y="325"/>
      <point x="124" y="361" type="curve"/>
      <point x="126" y="396"/>
      <point x="127" y="419"/>
      <point x="127" y="454" type="curve" smooth="yes"/>
    </contour>
    <contour>
      <point x="257" y="371" type="line"/>
      <point x="112" y="371" type="line"/>
      <point x="112" y="349" type="line"/>
      <point x="257" y="349" type="line"/>
    </contour>
  </outline>
</glyph>
<glyph name="U" format="2">
  <advance width="667"/>
  <unicode hex="0055"/>
  <anchor x="334" y="0" name="bottom"/>
  <anchor x="374" y="-9" name="ogonek"/>
  <anchor x="335" y="740" name="top"/>
  <outline>
    <contour>
      <point x="569" y="690" type="line"/>
      <point x="544" y="690" type="line"/>
      <point x="544" y="255" type="line" smooth="yes"/>
      <point x="544" y="76"/>
      <point x="487" y="11"/>
      <point x="334" y="11" type="curve" smooth="yes"/>
      <point x="180" y="11"/>
      <point x="123" y="76"/>
      <point x="123" y="255" type="curve" smooth="yes"/>
      <point x="123" y="690" type="line"/>
      <point x="98" y="690" type="line"/>
      <point x="98" y="255" type="line" smooth="yes"/>
      <point x="98" y="63"/>
      <point x="161" y="-12"/>
      <point x="334" y="-12" type="curve" smooth="yes"/>
      <point x="506" y="-12"/>
      <point x="569" y="63"/>
      <point x="569" y="255" type="curve" smooth="yes"/>
    </contour>
  </outline>
</glyph>
<glyph name="Y" format="2">
  <advance width="541"/>
  <unicode hex="0059"/>
  <guideline x="271" y="289" angle="90"/>
  <anchor x="271" y="0" name="bottom"/>
  <anchor x="271" y="740" name="top"/>
  <outline>
    <contour>
      <point x="518" y="690" type="line"/>
      <point x="490" y="690" type="line"/>
      <point x="310" y="356" type="line" smooth="yes"/>
      <point x="299" y="335"/>
      <point x="285" y="311"/>
      <point x="273" y="289" type="curve"/>
      <point x="268" y="289" type="line"/>
      <point x="255" y="311"/>
      <point x="242" y="335"/>
      <point x="230" y="357" type="curve" smooth="yes"/>
      <point x="50" y="690" type="line"/>
      <point x="22" y="690" type="line"/>
      <point x="262" y="250" type="line"/>
      <point x="279" y="250" type="line"/>
    </contour>
    <contour>
      <point x="283" y="281" type="line"/>
      <point x="258" y="281" type="line"/>
      <point x="258" y="0" type="line"/>
      <point x="283" y="0" type="line"/>
    </contour>
  </outline>
</glyph>
<glyph name="bracketright" format="2">
  <advance width="312"/>
  <unicode hex="005D"/>
  <outline>
    <contour>
      <point x="175" y="768" type="curve" smooth="yes"/>
      <point x="50" y="768" type="line"/>
      <point x="50" y="746" type="line"/>
      <point x="170" y="746" type="line" smooth="yes"/>
      <point x="177" y="746"/>
      <point x="182" y="741"/>
      <point x="182" y="734" type="curve" smooth="yes"/>
      <point x="182" y="-131" type="line" smooth="yes"/>
      <point x="182" y="-138"/>
      <point x="177" y="-143"/>
      <point x="170" y="-143" type="curve" smooth="yes"/>
      <point x="50" y="-143" type="line"/>
      <point x="50" y="-165" type="line"/>
      <point x="175" y="-165" type="line" smooth="yes"/>
      <point x="193" y="-165"/>
      <point x="206" y="-152"/>
      <point x="206" y="-134" type="curve" smooth="yes"/>
      <point x="206" y="737" type="line" smooth="yes"/>
      <point x="206" y="755"/>
      <point x="193" y="768"/>
    </contour>
  </outline>
</glyph>
<glyph name="asciicircum" format="2">
  <advance width="392"/>
  <unicode hex="005E"/>
  <outline>
    <contour>
      <point x="205" y="575" type="line"/>
      <point x="187" y="575" type="line"/>
      <point x="30" y="378" type="line"/>
      <point x="43" y="366" type="line"/>
      <point x="192" y="548" type="line"/>
      <point x="200" y="548" type="line"/>
      <point x="350" y="366" type="line"/>
      <point x="362" y="378" type="line"/>
    </contour>
  </outline>
</glyph>
<glyph name="grave" format="2">
  <advance width="277"/>
  <unicode hex="0060"/>
  <anchor x="178" y="554" name="_top"/>
  <outline>
    <contour>
      <point x="68" y="708" type="line"/>
      <point x="50" y="691" type="line"/>
      <point x="203" y="550" type="line"/>
      <point x="217" y="563" type="line"/>
    </contour>
  </outline>
</glyph>
<glyph name="a" format="2">
  <advance width="538"/>
  <unicode hex="0061"/>
  <anchor x="259" y="-12" name="bottom"/>
  <anchor x="447" y="0" name="ogonek"/>
  <anchor x="267" y="558" name="top"/>
  <outline>
    <contour>
      <point x="314" y="492" type="curve" smooth="yes"/>
      <point x="214" y="492"/>
      <point x="149" y="480"/>
      <point x="85" y="471" type="curve"/>
      <point x="88" y="453" type="line"/>
      <point x="159" y="462"/>
      <point x="241" y="469"/>
      <point x="313" y="469" type="curve" smooth="yes"/>
      <point x="398" y="469"/>
      <point x="423" y="419"/>
      <point x="423" y="358" type="curve" smooth="yes"/>
      <point x="423" y="112" type="line"/>
      <point x="423" y="106" type="line"/>
      <point x="429" y="0" type="line"/>
      <point x="447" y="0" type="line"/>
      <point x="447" y="358" type="line" smooth="yes"/>
      <point x="447" y="454"/>
      <point x="396" y="492"/>
    </contour>
    <contour>
      <point x="427" y="290" type="line"/>
      <point x="181" y="290" type="line" smooth="yes"/>
      <point x="108" y="290"/>
      <point x="66" y="249"/>
      <point x="66" y="177" type="curve" smooth="yes"/>
      <point x="66" y="115" type="line" smooth="yes"/>
      <point x="66" y="37"/>
      <point x="112" y="-6"/>
      <point x="191" y="-6" type="curve" smooth="yes"/>
      <point x="286" y="-6"/>
      <point x="390" y="55"/>
      <point x="428" y="97" type="curve"/>
      <point x="428" y="122" type="line"/>
      <point x="374" y="67"/>
      <point x="269" y="16"/>
      <point x="191" y="18" type="curve" smooth="yes"/>
      <point x="125" y="19"/>
      <point x="91" y="52"/>
      <point x="91" y="115" type="curve" smooth="yes"/>
      <point x="91" y="177" type="line" smooth="yes"/>
      <point x="91" y="234"/>
      <point x="122" y="265"/>
      <point x="181" y="266" type="curve" smooth="yes"/>
      <point x="426" y="270" type="line"/>
    </contour>
  </outline>
</glyph>
<glyph name="e" format="2">
  <advance width="527"/>
  <unicode hex="0065"/>
  <anchor x="263" y="0" name="bottom"/>
  <anchor x="453" y="6" name="ogonek"/>
  <anchor x="277" y="558" name="top"/>
  <outline>
    <contour>
      <point x="275" y="492" type="curve" smooth="yes"/>
      <point x="127" y="492"/>
      <point x="69" y="426"/>
      <point x="69" y="242" type="curve" smooth="yes"/>
      <point x="69" y="59"/>
      <point x="131" y="-12"/>
      <point x="283" y="-12" type="curve" smooth="yes"/>
      <point x="335" y="-12"/>
      <point x="421" y="-4"/>
      <point x="453" y="6" type="curve"/>
      <point x="449" y="24" type="line"/>
      <point x="412" y="18"/>
      <point x="351" y="11"/>
      <point x="286" y="11" type="curve" smooth="yes"/>
      <point x="152" y="11"/>
      <point x="94" y="70"/>
      <point x="94" y="243" type="curve" smooth="yes"/>
      <point x="94" y="409"/>
      <point x="142" y="469"/>
      <point x="276" y="469" type="curve" smooth="yes"/>
      <point x="383" y="469"/>
      <point x="437" y="434"/>
      <point x="439" y="354" type="curve" smooth="yes"/>
      <point x="441" y="286"/>
      <point x="420" y="249"/>
      <point x="361" y="249" type="curve" smooth="yes"/>
      <point x="83" y="249" type="line"/>
      <point x="83" y="227" type="line"/>
      <point x="361" y="227" type="line" smooth="yes"/>
      <point x="439" y="227"/>
      <point x="466" y="271"/>
      <point x="464" y="356" type="curve" smooth="yes"/>
      <point x="462" y="447"/>
      <point x="400" y="492"/>
    </contour>
  </outline>
</glyph>
<glyph name="j" format="2">
  <advance width="220"/>
  <unicode hex="006A"/>
  <outline>
    <contour>
      <point x="122" y="480" type="line"/>
      <point x="98" y="480" type="line"/>
      <point x="98" y="-46" type="line" smooth="yes"/>
      <point x="98" y="-111"/>
      <point x="77" y="-155"/>
      <point x="43" y="-200" type="curve"/>
      <point x="56" y="-210" type="line"/>
      <point x="96" y="-165"/>
      <point x="122" y="-111"/>
      <point x="122" y="-46" type="curve" smooth="yes"/>
    </contour>
    <contour>
      <point x="115" y="679" type="curve" smooth="yes"/>
      <point x="105" y="679" type="line"/>
      <point x="97" y="679"/>
      <point x="93" y="675"/>
      <point x="93" y="667" type="curve" smooth="yes"/>
      <point x="93" y="605" type="line"/>
      <point x="93" y="597"/>
      <point x="97" y="593"/>
      <point x="105" y="593" type="curve" smooth="yes"/>
      <point x="115" y="593" type="line"/>
      <point x="123" y="593"/>
      <point x="127" y="597"/>
      <point x="127" y="605" type="curve" smooth="yes"/>
      <point x="127" y="667" type="line"/>
      <point x="127" y="675"/>
      <point x="123" y="679"/>
    </contour>
  </outline>
</glyph>
<glyph name="m" format="2">
  <advance width="880"/>
  <unicode hex="006D"/>
  <anchor x="442" y="0" name="bottom"/>
  <anchor x="450" y="558" name="top"/>
  <outline>
    <contour>
      <point x="665" y="492" type="curve" smooth="yes"/>
      <point x="596" y="492"/>
      <point x="526" y="458"/>
      <point x="451" y="392" type="curve"/>
      <point x="451" y="369" type="line"/>
      <point x="537" y="435"/>
      <point x="593" y="469"/>
      <point x="660" y="469" type="curve" smooth="yes"/>
      <point x="729" y="469"/>
      <point x="765" y="434"/>
      <point x="765" y="358" type="curve" smooth="yes"/>
      <point x="765" y="0" type="line"/>
      <point x="789" y="0" type="line"/>
      <point x="789" y="361" type="line" smooth="yes"/>
      <point x="789" y="447"/>
      <point x="745" y="492"/>
    </contour>
    <contour>
      <point x="113" y="480" type="line"/>
      <point x="95" y="480" type="line"/>
      <point x="95" y="0" type="line"/>
      <point x="119" y="0" type="line"/>
      <point x="119" y="376" type="line"/>
      <point x="116" y="392" type="line"/>
    </contour>
    <contour>
      <point x="330" y="492" type="curve" smooth="yes"/>
      <point x="261" y="492"/>
      <point x="191" y="458"/>
      <point x="116" y="392" type="curve"/>
      <point x="116" y="369" type="line"/>
      <point x="202" y="435"/>
      <point x="258" y="469"/>
      <point x="325" y="469" type="curve" smooth="yes"/>
      <point x="394" y="469"/>
      <point x="430" y="434"/>
      <point x="430" y="358" type="curve" smooth="yes"/>
      <point x="430" y="0" type="line"/>
      <point x="454" y="0" type="line"/>
      <point x="454" y="361" type="line" smooth="yes"/>
      <point x="454" y="447"/>
      <point x="410" y="492"/>
    </contour>
  </outline>
</glyph>
<glyph name="q" format="2">
  <advance width="559"/>
  <unicode hex="0071"/>
  <outline>
    <contour>
      <point x="268" y="492" type="curve" smooth="yes"/>
      <point x="124" y="492"/>
      <point x="70" y="424"/>
      <point x="70" y="240" type="curve" smooth="yes"/>
      <point x="70" y="66"/>
      <point x="118" y="-12"/>
      <point x="234" y="-12" type="curve" smooth="yes"/>
      <point x="311" y="-12"/>
      <point x="371" y="23"/>
      <point x="450" y="87" type="curve"/>
      <point x="445" y="106" type="line"/>
      <point x="362" y="43"/>
      <point x="309" y="11"/>
      <point x="238" y="11" type="curve" smooth="yes"/>
      <point x="137" y="11"/>
      <point x="95" y="76"/>
      <point x="95" y="239" type="curve" smooth="yes"/>
      <point x="95" y="413"/>
      <point x="143" y="469"/>
      <point x="272" y="469" type="curve" smooth="yes"/>
      <point x="317" y="469"/>
      <point x="376" y="462"/>
      <point x="445" y="443" type="curve"/>
      <point x="466" y="461" type="line"/>
      <point x="395" y="480"/>
      <point x="329" y="492"/>
    </contour>
    <contour>
      <point x="442" y="461" type="line"/>
      <point x="442" y="99" type="line"/>
      <point x="445" y="83" type="line"/>
      <point x="441" y="52"/>
      <point x="442" y="29"/>
      <point x="442" y="-10" type="curve" smooth="yes"/>
      <point x="442" y="-210" type="line"/>
      <point x="466" y="-210" type="line"/>
      <point x="466" y="461" type="line"/>
    </contour>
  </outline>
</glyph>
<glyph name="s" format="2">
  <advance width="499"/>
  <unicode hex="0073"/>
  <anchor x="248" y="-11" name="bottom"/>
  <anchor x="253" y="558" name="top"/>
  <outline>
    <contour>
      <point x="239" y="492" type="curve" smooth="yes"/>
      <point x="122" y="494"/>
      <point x="62" y="486"/>
      <point x="62" y="365" type="curve" smooth="yes"/>
      <point x="62" y="282"/>
      <point x="99" y="249"/>
      <point x="166" y="241" type="curve" smooth="yes"/>
      <point x="328" y="221" type="line" smooth="yes"/>
      <point x="376" y="215"/>
      <point x="413" y="192"/>
      <point x="413" y="122" type="curve" smooth="yes"/>
      <point x="413" y="26"/>
      <point x="369" y="13"/>
      <point x="249" y="11" type="curve" smooth="yes"/>
      <point x="185" y="10"/>
      <point x="140" y="12"/>
      <point x="77" y="18" type="curve"/>
      <point x="74" y="0" type="line"/>
      <point x="147" y="-10"/>
      <point x="201" y="-11"/>
      <point x="248" y="-11" type="curve" smooth="yes"/>
      <point x="369" y="-11"/>
      <point x="437" y="0"/>
      <point x="437" y="122" type="curve" smooth="yes"/>
      <point x="437" y="198"/>
      <point x="398" y="235"/>
      <point x="328" y="244" type="curve" smooth="yes"/>
      <point x="166" y="264" type="line" smooth="yes"/>
      <point x="115" y="270"/>
      <point x="86" y="294"/>
      <point x="86" y="365" type="curve" smooth="yes"/>
      <point x="86" y="469"/>
      <point x="132" y="472"/>
      <point x="239" y="470" type="curve" smooth="yes"/>
      <point x="298" y="469"/>
      <point x="363" y="466"/>
      <point x="422" y="462" type="curve"/>
      <point x="425" y="480" type="line"/>
      <point x="366" y="487"/>
      <point x="297" y="491"/>
    </contour>
  </outline>
</glyph>
<glyph name="u" format="2">
  <advance width="560"/>
  <unicode hex="0075"/>
  <anchor x="276" y="-11" name="bottom"/>
  <anchor x="465" y="0" name="ogonek"/>
  <anchor x="280" y="558" name="top"/>
  <outline>
    <contour>
      <point x="115" y="480" type="line"/>
      <point x="91" y="480" type="line"/>
      <point x="91" y="119" type="line"/>
      <point x="91" y="33"/>
      <point x="135" y="-12"/>
      <point x="220" y="-12" type="curve" smooth="yes"/>
      <point x="292" y="-12"/>
      <point x="365" y="22"/>
      <point x="444" y="88" type="curve"/>
      <point x="444" y="111" type="line"/>
      <point x="354" y="45"/>
      <point x="295" y="11"/>
      <point x="225" y="11" type="curve" smooth="yes"/>
      <point x="151" y="11"/>
      <point x="115" y="46"/>
      <point x="115" y="122" type="curve" smooth="yes"/>
    </contour>
    <contour>
      <point x="465" y="480" type="line"/>
      <point x="441" y="480" type="line"/>
      <point x="441" y="104" type="line"/>
      <point x="444" y="88" type="line"/>
      <point x="447" y="0" type="line"/>
      <point x="465" y="0" type="line"/>
    </contour>
  </outline>
</glyph>
<glyph name="braceleft" format="2">
  <advance width="298"/>
  <unicode hex="007B"/>
  <outline>
    <contour>
      <point x="248" y="768" type="line"/>
      <point x="156" y="768"/>
      <point x="121" y="731"/>
      <point x="121" y="642" type="curve" smooth="yes"/>
      <point x="121" y="427" type="line" smooth="yes"/>
      <point x="121" y="359"/>
      <point x="109" y="359"/>
      <point x="56" y="343" type="curve"/>
      <point x="56" y="313" type="line"/>
      <point x="105" y="295"/>
      <point x="125" y="290"/>
      <point x="125" y="233" type="curve" smooth="yes"/>
      <point x="125" y="-39" type="line" smooth="yes"/>
      <point x="125" y="-128"/>
      <point x="160" y="-165"/>
      <point x="252" y="-165" type="curve"/>
      <point x="252" y="-147" type="line"/>
      <point x="172" y="-147"/>
      <point x="149" y="-109"/>
      <point x="149" y="-39" type="curve" smooth="yes"/>
      <point x="149" y="223" type="line" smooth="yes"/>
      <point x="149" y="293"/>
      <point x="132" y="306"/>
      <point x="69" y="328" type="curve"/>
      <point x="129" y="342"/>
      <point x="145" y="356"/>
      <point x="145" y="437" type="curve" smooth="yes"/>
      <point x="145" y="642" type="line" smooth="yes"/>
      <point x="145" y="713"/>
      <point x="168" y="750"/>
      <point x="248" y="750" type="curve"/>
    </contour>
  </outline>
</glyph>
<glyph name="bar" format="2">
  <advance width="234"/>
  <unicode hex="007C"/>
  <outline>
    <contour>
      <point x="128" y="781" type="line"/>
      <point x="106" y="781" type="line"/>
      <point x="106" y="-169" type="line"/>
      <point x="128" y="-169" type="line"/>
    </contour>
  </outline>
</glyph>
<glyph name="copyright" format="2">
  <advance width="858"/>
  <unicode hex="00A9"/>
  <outline>
    <contour>
      <point x="429" y="702" type="curve" smooth="yes"/>
      <point x="232" y="702"/>
      <point x="72" y="552"/>
      <point x="72" y="345" type="curve" smooth="yes"/>
      <point x="72" y="138"/>
      <point x="232" y="-12"/>
      <point x="429" y="-12" type="curve" smooth="yes"/>
      <point x="627" y="-12"/>
      <point x="786" y="138"/>
      <point x="786" y="345" type="curve" smooth="yes"/>
      <point x="786" y="552"/>
      <point x="627" y="702"/>
    </contour>
    <contour>
      <point x="434" y="580" type="curve" smooth="yes"/>
      <point x="290" y="580"/>
      <point x="239" y="518"/>
      <point x="239" y="348" type="curve" smooth="yes"/>
      <point x="239" y="178"/>
      <point x="290" y="116"/>
      <point x="434" y="116" type="curve" smooth="yes"/>
      <point x="499" y="116"/>
      <point x="538" y="120"/>
      <point x="578" y="128" type="curve"/>
      <point x="574" y="144" type="line"/>
      <point x="534" y="138"/>
      <point x="496" y="136"/>
      <point x="434" y="136" type="curve" smooth="yes"/>
      <point x="306" y="136"/>
      <point x="261" y="191"/>
      <point x="261" y="348" type="curve" smooth="yes"/>
      <point x="261" y="505"/>
      <point x="306" y="559"/>
      <point x="434" y="559" type="curve" smooth="yes"/>
      <point x="491" y="559"/>
      <point x="519" y="558"/>
      <point x="562" y="553" type="curve"/>
      <point x="567" y="568" type="line"/>
      <point x="528" y="577"/>
      <point x="495" y="580"/>
    </contour>
    <contour>
      <point x="429" y="681" type="curve" smooth="yes"/>
      <point x="614" y="681"/>
      <point x="765" y="539"/>
      <point x="765" y="345" type="curve" smooth="yes"/>
      <point x="765" y="151"/>
      <point x="614" y="9"/>
      <point x="429" y="9" type="curve" smooth="yes"/>
      <point x="245" y="9"/>
      <point x="93" y="151"/>
      <point x="93" y="345" type="curve" smooth="yes"/>
      <point x="93" y="539"/>
      <point x="245" y="681"/>
    </contour>
  </outline>
</glyph>
<glyph name="plusminus" format="2">
  <advance width="599"/>
  <unicode hex="00B1"/>
  <outline>
    <contour>
      <point x="508" y="358" type="line"/>
      <point x="91" y="358" type="line"/>
      <point x="91" y="336" type="line"/>
      <point x="508" y="336" type="line"/>
    </contour>
    <contour>
      <point x="508" y="116" type="line"/>
      <point x="91" y="116" type="line"/>
      <point x="91" y="94" type="line"/>
      <point x="508" y="94" type="line"/>
    </contour>
    <contour>
      <point x="311" y="505" type="line"/>
      <point x="288" y="505" type="line"/>
      <point x="289" y="189" type="line"/>
      <point x="310" y="189" type="line"/>
    </contour>
  </outline>
</glyph>
<glyph name="micro" format="2">
  <advance width="572"/>
  <unicode hex="00B5"/>
  <outline>
    <contour>
      <point x="118" y="480" type="line"/>
      <point x="95" y="480" type="line"/>
      <point x="95" y="119" type="line"/>
      <point x="95" y="30"/>
      <point x="142" y="-12"/>
      <point x="230" y="-12" type="curve" smooth="yes"/>
      <point x="309" y="-12"/>
      <point x="410" y="35"/>
      <point x="454" y="141" type="curve"/>
      <point x="451" y="205" type="line"/>
      <point x="448" y="98"/>
      <point x="340" y="11"/>
      <point x="229" y="11" type="curve" smooth="yes"/>
      <point x="155" y="11"/>
      <point x="118" y="46"/>
      <point x="118" y="122" type="curve" smooth="yes"/>
    </contour>
    <contour>
      <point x="118" y="83" type="line"/>
      <point x="95" y="133" type="line"/>
      <point x="95" y="-210" type="line"/>
      <point x="112" y="-210" type="line"/>
      <point x="118" y="-105" type="line"/>
    </contour>
    <contour>
      <point x="475" y="480" type="line"/>
      <point x="451" y="480" type="line"/>
      <point x="451" y="157" type="line"/>
      <point x="454" y="141" type="line"/>
      <point x="454" y="84" type="line" smooth="yes"/>
      <point x="454" y="34"/>
      <point x="460" y="-6"/>
      <point x="505" y="-6" type="curve" smooth="yes"/>
      <point x="523" y="-6"/>
      <point x="539" y="-4"/>
      <point x="552" y="0" type="curve"/>
      <point x="549" y="15" type="line"/>
      <point x="510" y="15" type="line" smooth="yes"/>
      <point x="474" y="15"/>
      <point x="475" y="53"/>
      <point x="475" y="90" type="curve" smooth="yes"/>
    </contour>
  </outline>
</glyph>
<glyph name="threequarters" format="2">
  <advance width="930"/>
  <unicode hex="00BE"/>
  <outline>
    <contour>
      <point x="734" y="690" type="line"/>
      <point x="710" y="690" type="line"/>
      <point x="230" y="0" type="line"/>
      <point x="254" y="0" type="line"/>
    </contour>
    <contour>
      <point x="194" y="695" type="curve" smooth="yes"/>
      <point x="154" y="695"/>
      <point x="117" y="692"/>
      <point x="75" y="685" type="curve"/>
      <point x="79" y="669" type="line"/>
      <point x="110" y="673"/>
      <point x="151" y="676"/>
      <point x="194" y="676" type="curve" smooth="yes"/>
      <point x="283" y="676"/>
      <point x="313" y="659"/>
      <point x="314" y="597" type="curve" smooth="yes"/>
      <point x="314" y="559"/>
      <point x="305" y="504"/>
      <point x="212" y="502" type="curve" smooth="yes"/>
      <point x="126" y="500" type="line"/>
      <point x="126" y="485" type="line"/>
      <point x="212" y="484" type="line" smooth="yes"/>
      <point x="305" y="484"/>
      <point x="324" y="439"/>
      <point x="324" y="390" type="curve" smooth="yes"/>
      <point x="324" y="314"/>
      <point x="288" y="286"/>
      <point x="204" y="286" type="curve" smooth="yes"/>
      <point x="157" y="286"/>
      <point x="111" y="289"/>
      <point x="72" y="293" type="curve"/>
      <point x="68" y="277" type="line"/>
      <point x="112" y="272"/>
      <point x="159" y="267"/>
      <point x="206" y="267" type="curve" smooth="yes"/>
      <point x="311" y="267"/>
      <point x="348" y="307"/>
      <point x="346" y="389" type="curve" smooth="yes"/>
      <point x="345" y="443"/>
      <point x="324" y="484"/>
      <point x="260" y="493" type="curve"/>
      <point x="260" y="495" type="line"/>
      <point x="318" y="505"/>
      <point x="335" y="550"/>
      <point x="335" y="600" type="curve" smooth="yes"/>
      <point x="335" y="672"/>
      <point x="299" y="695"/>
    </contour>
    <contour>
      <point x="722" y="414" type="line"/>
      <point x="699" y="414" type="line"/>
      <point x="551" y="163" type="line" smooth="yes"/>
      <point x="538" y="140"/>
      <point x="555" y="115"/>
      <point x="583" y="115" type="curve" smooth="yes"/>
      <point x="813" y="115" type="line"/>
      <point x="877" y="118" type="line"/>
      <point x="877" y="133" type="line"/>
      <point x="593" y="133" type="line" smooth="yes"/>
      <point x="575" y="133"/>
      <point x="565" y="148"/>
      <point x="573" y="162" type="curve" smooth="yes"/>
    </contour>
    <contour>
      <point x="822" y="336" type="line"/>
      <point x="806" y="336" type="line"/>
      <point x="801" y="266" type="line"/>
      <point x="801" y="0" type="line"/>
      <point x="822" y="0" type="line"/>
    </contour>
  </outline>
</glyph>
<glyph name="Lslash" format="2">
  <advance width="511"/>
  <unicode hex="0141"/>
  <outline>
    <contour>
      <point x="258" y="446" type="line"/>
      <point x="27" y="344" type="line"/>
      <point x="27" y="323" type="line"/>
      <point x="258" y="425" type="line"/>
    </contour>
    <component base="L" xOffset="4"/>
  </outline>
</glyph>
<glyph name="oe" format="2">
  <advance width="922"/>
  <unicode hex="0153"/>
  <anchor x="473" y="547" name="top"/>
  <outline>
    <contour>
      <point x="280" y="-12" type="curve" smooth="yes"/>
      <point x="435" y="-12"/>
      <point x="490" y="55"/>
      <point x="490" y="240" type="curve" smooth="yes"/>
      <point x="490" y="425"/>
      <point x="435" y="492"/>
      <point x="280" y="492" type="curve" smooth="yes"/>
      <point x="125" y="492"/>
      <point x="70" y="425"/>
      <point x="70" y="240" type="curve" smooth="yes"/>
      <point x="70" y="55"/>
      <point x="125" y="-12"/>
    </contour>
    <contour>
      <point x="280" y="11" type="curve" smooth="yes"/>
      <point x="144" y="11"/>
      <point x="95" y="67"/>
      <point x="95" y="240" type="curve" smooth="yes"/>
      <point x="95" y="413"/>
      <point x="144" y="469"/>
      <point x="280" y="469" type="curve" smooth="yes"/>
      <point x="416" y="469"/>
      <point x="465" y="413"/>
      <point x="465" y="240" type="curve" smooth="yes"/>
      <point x="465" y="67"/>
      <point x="416" y="11"/>
    </contour>
    <contour>
      <point x="679" y="-12" type="curve" smooth="yes"/>
      <point x="731" y="-12"/>
      <point x="817" y="-4"/>
      <point x="849" y="6" type="curve"/>
      <point x="845" y="24" type="line"/>
      <point x="808" y="18"/>
      <point x="747" y="11"/>
      <point x="682" y="11" type="curve" smooth="yes"/>
      <point x="548" y="11"/>
      <point x="490" y="70"/>
      <point x="490" y="243" type="curve" smooth="yes"/>
      <point x="490" y="409"/>
      <point x="538" y="469"/>
      <point x="672" y="469" type="curve" smooth="yes"/>
      <point x="779" y="469"/>
      <point x="833" y="431"/>
      <point x="835" y="354" type="curve" smooth="yes"/>
      <point x="837" y="277"/>
      <point x="805" y="249"/>
      <point x="717" y="249" type="curve" smooth="yes"/>
      <point x="479" y="249" type="line"/>
      <point x="479" y="227" type="line"/>
      <point x="717" y="227" type="line" smooth="yes"/>
      <point x="822" y="227"/>
      <point x="862" y="261"/>
      <point x="860" y="356" type="curve" smooth="yes"/>
      <point x="858" y="447"/>
      <point x="796" y="492"/>
      <point x="671" y="492" type="curve" smooth="yes"/>
      <point x="523" y="492"/>
      <point x="465" y="426"/>
      <point x="465" y="242" type="curve" smooth="yes"/>
      <point x="465" y="59"/>
      <point x="527" y="-12"/>
    </contour>
  </outline>
</glyph>
<glyph name="Ohorn" format="2">
  <advance width="662"/>
  <unicode hex="01A0"/>
  <anchor x="331" y="0" name="bottom"/>
  <anchor x="332" y="740" name="top"/>
  <outline>
    <contour>
      <point x="331" y="702" type="curve" smooth="yes"/>
      <point x="144" y="702"/>
      <point x="76" y="607"/>
      <point x="76" y="345" type="curve" smooth="yes"/>
      <point x="76" y="82"/>
      <point x="142" y="-12"/>
      <point x="331" y="-12" type="curve" smooth="yes"/>
      <point x="520" y="-12"/>
      <point x="586" y="82"/>
      <point x="586" y="345" type="curve" smooth="yes"/>
      <point x="586" y="608"/>
      <point x="520" y="702"/>
    </contour>
    <contour>
      <point x="331" y="679" type="curve" smooth="yes"/>
      <point x="501" y="679"/>
      <point x="560" y="593"/>
      <point x="560" y="345" type="curve" smooth="yes"/>
      <point x="560" y="97"/>
      <point x="501" y="11"/>
      <point x="331" y="11" type="curve" smooth="yes"/>
      <point x="161" y="11"/>
      <point x="102" y="97"/>
      <point x="102" y="345" type="curve" smooth="yes"/>
      <point x="102" y="593"/>
      <point x="161" y="679"/>
    </contour>
    <component base="horncomb" xOffset="765" yOffset="179"/>
  </outline>
</glyph>
<glyph name="jdotless" format="2">
  <advance width="220"/>
  <unicode hex="0237"/>
  <anchor x="111" y="0" name="bottom"/>
  <anchor x="109" y="558" name="top"/>
  <outline>
    <contour>
      <point x="122" y="480" type="line"/>
      <point x="98" y="480" type="line"/>
      <point x="98" y="-46" type="line" smooth="yes"/>
      <point x="98" y="-111"/>
      <point x="77" y="-155"/>
      <point x="43" y="-200" type="curve"/>
      <point x="56" y="-210" type="line"/>
      <point x="96" y="-165"/>
      <point x="122" y="-111"/>
      <point x="122" y="-46" type="curve" smooth="yes"/>
    </contour>
  </outline>
</glyph>
<glyph name="acutecomb" format="2">
  <unicode hex="0301"/>
  <anchor x="-212" y="554" name="_top"/>
  <outline>
    <contour>
      <point x="-111" y="708" type="line"/>
      <point x="-260" y="563" type="line"/>
      <point x="-246" y="550" type="line"/>
      <point x="-93" y="691" type="line"/>
    </contour>
  </outline>
</glyph>
<glyph name="dblgravecomb" format="2">
  <unicode hex="030F"/>
  <anchor x="-192" y="554" name="_top"/>
  <outline>
    <contour>
      <point x="-211" y="715" type="line"/>
      <point x="-233" y="700" type="line"/>
      <point x="-116" y="548" type="line"/>
      <point x="-100" y="558" type="line"/>
    </contour>
    <contour>
      <point x="-351" y="715" type="line"/>
      <point x="-373" y="700" type="line"/>
      <point x="-256" y="548" type="line"/>
      <point x="-240" y="558" type="line"/>
    </contour>
  </outline>
</glyph>
<glyph name="dieresisbelowcomb" format="2">
  <unicode hex="0324"/>
  <anchor x="-207" y="0" name="_bottom"/>
  <outline>
    <contour>
      <point x="-113" y="-68" type="curve" smooth="yes"/>
      <point x="-123" y="-68" type="line" smooth="yes"/>
      <point x="-130" y="-68"/>
      <point x="-133" y="-72"/>
      <point x="-133" y="-79" type="curve" smooth="yes"/>
      <point x="-133" y="-135" type="line" smooth="yes"/>
      <point x="-133" y="-142"/>
      <point x="-130" y="-146"/>
      <point x="-123" y="-146" type="curve" smooth="yes"/>
      <point x="-113" y="-146" type="line" smooth="yes"/>
      <point x="-106" y="-146"/>
      <point x="-103" y="-142"/>
      <point x="-103" y="-135" type="curve" smooth="yes"/>
      <point x="-103" y="-79" type="line" smooth="yes"/>
      <point x="-103" y="-72"/>
      <point x="-106" y="-68"/>
    </contour>
    <contour>
      <point x="-290" y="-68" type="curve" smooth="yes"/>
      <point x="-300" y="-68" type="line" smooth="yes"/>
      <point x="-307" y="-68"/>
      <point x="-310" y="-72"/>
      <point x="-310" y="-79" type="curve" smooth="yes"/>
      <point x="-310" y="-135" type="line" smooth="yes"/>
      <point x="-310" y="-142"/>
      <point x="-307" y="-146"/>
      <point x="-300" y="-146" type="curve" smooth="yes"/>
      <point x="-290" y="-146" type="line" smooth="yes"/>
      <point x="-283" y="-146"/>
      <point x="-280" y="-142"/>
      <point x="-280" y="-135" type="curve" smooth="yes"/>
      <point x="-280" y="-79" type="line" smooth="yes"/>
      <point x="-280" y="-72"/>
      <point x="-283" y="-68"/>
    </contour>
  </outline>
</glyph>
<glyph name="cedillacomb" format="2">
  <unicode hex="0327"/>
  <anchor x="-90" y="0" name="_bottom"/>
  <outline>
    <contour>
      <point x="-119" y="-49" type="curve"/>
      <point x="-122" y="-63" type="line"/>
      <point x="-78" y="-64"/>
      <point x="-63" y="-77"/>
      <point x="-63" y="-114" type="curve" smooth="yes"/>
      <point x="-63" y="-164"/>
      <point x="-105" y="-207"/>
      <point x="-176" y="-204" type="curve"/>
      <point x="-180" y="-219" type="line"/>
      <point x="-95" y="-230"/>
      <point x="-42" y="-181"/>
      <point x="-41" y="-114" type="curve" smooth="yes"/>
      <point x="-40" y="-66"/>
      <point x="-68" y="-46"/>
    </contour>
  </outline>
</glyph>
<glyph name="ogonekcomb" format="2">
  <unicode hex="0328"/>
  <anchor x="-94" y="0" name="_ogonek"/>
  <outline>
    <contour>
      <point x="-112" y="2" type="line"/>
      <point x="-166" y="-47"/>
      <point x="-191" y="-89"/>
      <point x="-203" y="-124" type="curve" smooth="yes"/>
      <point x="-227" y="-191"/>
      <point x="-188" y="-242"/>
      <point x="-85" y="-194" type="curve"/>
      <point x="-88" y="-182" type="line"/>
      <point x="-164" y="-209"/>
      <point x="-203" y="-188"/>
      <point x="-181" y="-126" type="curve" smooth="yes"/>
      <point x="-163" y="-76"/>
      <point x="-130" y="-36"/>
      <point x="-94" y="0" type="curve"/>
    </contour>
  </outline>
</glyph>
<glyph name="brevebelowcomb" format="2">
  <unicode hex="032E"/>
  <anchor x="-215" y="0" name="_bottom"/>
  <outline>
    <contour>
      <point x="-96" y="-43" type="line"/>
      <point x="-96" y="-103"/>
      <point x="-142" y="-137"/>
      <point x="-213" y="-137" type="curve" smooth="yes"/>
      <point x="-286" y="-137"/>
      <point x="-332" y="-103"/>
      <point x="-332" y="-43" type="curve"/>
      <point x="-350" y="-47" type="line"/>
      <point x="-350" y="-118"/>
      <point x="-297" y="-161"/>
      <point x="-213" y="-161" type="curve" smooth="yes"/>
      <point x="-130" y="-161"/>
      <point x="-78" y="-118"/>
      <point x="-78" y="-47" type="curve"/>
    </contour>
  </outline>
</glyph>
<glyph name="I-cy" format="2">
  <advance width="231"/>
  <unicode hex="0406"/>
  <anchor x="116" y="690" name="top"/>
  <outline>
    <contour>
      <point x="128" y="690" type="line"/>
      <point x="103" y="690" type="line"/>
      <point x="103" y="0" type="line"/>
      <point x="128" y="0" type="line"/>
    </contour>
  </outline>
</glyph>
<glyph name="Nje-cy" format="2">
  <advance width="983"/>
  <unicode hex="040A"/>
  <outline>
    <contour>
      <point x="718" y="382" type="curve" smooth="yes"/>
      <point x="522" y="382" type="line"/>
      <point x="522" y="359" type="line"/>
      <point x="718" y="359" type="line" smooth="yes"/>
      <point x="858" y="359"/>
      <point x="899" y="313"/>
      <point x="899" y="188" type="curve" smooth="yes"/>
      <point x="899" y="47"/>
      <point x="848" y="15"/>
      <point x="718" y="15" type="curve" smooth="yes"/>
      <point x="621" y="15"/>
      <point x="550" y="16"/>
      <point x="523" y="18" type="curve"/>
      <point x="509" y="0" type="line"/>
      <point x="577" y="-7"/>
      <point x="619" y="-8"/>
      <point x="718" y="-8" type="curve" smooth="yes"/>
      <point x="867" y="-8"/>
      <point x="925" y="33"/>
      <point x="925" y="188" type="curve" smooth="yes"/>
      <point x="925" y="327"/>
      <point x="877" y="382"/>
    </contour>
    <contour>
      <point x="128" y="690" type="line"/>
      <point x="103" y="690" type="line"/>
      <point x="103" y="0" type="line"/>
      <point x="128" y="0" type="line"/>
    </contour>
    <contour>
      <point x="520" y="381" type="line"/>
      <point x="120" y="381" type="line"/>
      <point x="120" y="359" type="line"/>
      <point x="520" y="359" type="line"/>
    </contour>
    <contour>
      <point x="534" y="690" type="line"/>
      <point x="509" y="690" type="line"/>
      <point x="509" y="0" type="line"/>
      <point x="534" y="0" type="line"/>
    </contour>
  </outline>
</glyph>
<glyph name="Dzhe-cy" format="2">
  <advance width="666"/>
  <unicode hex="040F"/>
  <outline>
    <contour>
      <point x="563" y="690" type="line"/>
      <point x="538" y="690" type="line"/>
      <point x="538" y="0" type="line"/>
      <point x="563" y="0" type="line"/>
    </contour>
    <contour>
      <point x="345" y="7" type="line"/>
      <point x="321" y="7" type="line"/>
      <point x="325" y="-151" type="line"/>
      <point x="343" y="-151" type="line"/>
    </contour>
    <contour>
      <point x="550" y="22" type="line"/>
      <point x="120" y="22" type="line"/>
      <point x="120" y="0" type="line"/>
      <point x="550" y="0" type="line"/>
    </contour>
    <contour>
      <point x="128" y="690" type="line"/>
      <point x="103" y="690" type="line"/>
      <point x="103" y="0" type="line"/>
      <point x="128" y="0" type="line"/>
    </contour>
  </outline>
</glyph>
<glyph name="Be-cy" format="2">
  <advance width="592"/>
  <unicode hex="0411"/>
  <outline>
    <contour>
      <point x="496" y="690" type="line"/>
      <point x="431" y="693"/>
      <point x="367" y="694"/>
      <point x="302" y="694" type="curve" smooth="yes"/>
      <point x="236" y="694"/>
      <point x="169" y="693"/>
      <point x="103" y="690" type="curve"/>
      <point x="103" y="0" type="line"/>
      <point x="128" y="0" type="line"/>
      <point x="128" y="670" type="line"/>
      <point x="493" y="670" type="line"/>
    </contour>
    <contour>
      <point x="322" y="370" type="curve" smooth="yes"/>
      <point x="116" y="370" type="line"/>
      <point x="116" y="347" type="line"/>
      <point x="322" y="347" type="line" smooth="yes"/>
      <point x="462" y="347"/>
      <point x="503" y="304"/>
      <point x="503" y="181" type="curve" smooth="yes"/>
      <point x="503" y="45"/>
      <point x="452" y="15"/>
      <point x="322" y="15" type="curve" smooth="yes"/>
      <point x="220" y="15"/>
      <point x="145" y="16"/>
      <point x="117" y="18" type="curve"/>
      <point x="103" y="0" type="line"/>
      <point x="174" y="-7"/>
      <point x="218" y="-8"/>
      <point x="322" y="-8" type="curve" smooth="yes"/>
      <point x="471" y="-8"/>
      <point x="529" y="31"/>
      <point x="529" y="181" type="curve" smooth="yes"/>
      <point x="529" y="318"/>
      <point x="481" y="370"/>
    </contour>
  </outline>
</glyph>
<glyph name="Ze-cy" format="2">
  <advance width="544"/>
  <unicode hex="0417"/>
  <anchor x="257" y="0" name="bottom"/>
  <anchor x="257" y="740" name="top"/>
  <outline>
    <contour>
      <point x="228" y="698" type="curve" smooth="yes"/>
      <point x="166" y="698"/>
      <point x="116" y="694"/>
      <point x="57" y="685" type="curve"/>
      <point x="61" y="667" type="line"/>
      <point x="84" y="668"/>
      <point x="145" y="675"/>
      <point x="228" y="675" type="curve" smooth="yes"/>
      <point x="372" y="675"/>
      <point x="424" y="646"/>
      <point x="424" y="518" type="curve" smooth="yes"/>
      <point x="424" y="398"/>
      <point x="377" y="368"/>
      <point x="248" y="368" type="curve" smooth="yes"/>
      <point x="147" y="368" type="line"/>
      <point x="147" y="347" type="line"/>
      <point x="248" y="347" type="line" smooth="yes"/>
      <point x="392" y="347"/>
      <point x="444" y="309"/>
      <point x="444" y="172" type="curve" smooth="yes"/>
      <point x="444" y="44"/>
      <point x="395" y="15"/>
      <point x="258" y="15" type="curve" smooth="yes"/>
      <point x="156" y="15"/>
      <point x="76" y="23"/>
      <point x="48" y="24" type="curve"/>
      <point x="44" y="6" type="line"/>
      <point x="106" y="-4"/>
      <point x="179" y="-8"/>
      <point x="258" y="-8" type="curve" smooth="yes"/>
      <point x="414" y="-8"/>
      <point x="470" y="30"/>
      <point x="470" y="172" type="curve" smooth="yes"/>
      <point x="470" y="282"/>
      <point x="436" y="347"/>
      <point x="333" y="356" type="curve"/>
      <point x="333" y="360" type="line"/>
      <point x="415" y="368"/>
      <point x="450" y="419"/>
      <point x="450" y="518" type="curve" smooth="yes"/>
      <point x="450" y="660"/>
      <point x="391" y="698"/>
    </contour>
  </outline>
</glyph>
<glyph name="El-cy" format="2">
  <advance width="632"/>
  <unicode hex="041B"/>
  <guideline x="177" y="586" angle="0"/>
  <outline>
    <contour>
      <point x="515" y="690" type="line"/>
      <point x="306" y="690" type="line" smooth="yes"/>
      <point x="242" y="690"/>
      <point x="206" y="655"/>
      <point x="200" y="587" type="curve" smooth="yes"/>
      <point x="173" y="280"/>
      <point x="170" y="217"/>
      <point x="113" y="122" type="curve" smooth="yes"/>
      <point x="75" y="60"/>
      <point x="43" y="36"/>
      <point x="14" y="20" type="curve"/>
      <point x="18" y="0" type="line"/>
      <point x="65" y="17"/>
      <point x="107" y="64"/>
      <point x="136" y="113" type="curve" smooth="yes"/>
      <point x="194" y="208"/>
      <point x="199" y="293"/>
      <point x="224" y="585" type="curve" smooth="yes"/>
      <point x="228" y="640"/>
      <point x="258" y="668"/>
      <point x="310" y="668" type="curve" smooth="yes"/>
      <point x="515" y="668" type="line"/>
    </contour>
    <contour>
      <point x="529" y="690" type="line"/>
      <point x="504" y="690" type="line"/>
      <point x="504" y="0" type="line"/>
      <point x="529" y="0" type="line"/>
    </contour>
  </outline>
</glyph>
<glyph name="Tse-cy" format="2">
  <advance width="672"/>
  <unicode hex="0426"/>
  <outline>
    <contour>
      <point x="103" y="0" type="line"/>
      <point x="128" y="0" type="line"/>
      <point x="128" y="690" type="line"/>
      <point x="103" y="690" type="line"/>
    </contour>
    <contour>
      <point x="120" y="0" type="line"/>
      <point x="633" y="0" type="line"/>
      <point x="633" y="22" type="line"/>
      <point x="120" y="22" type="line"/>
    </contour>
    <contour>
      <point x="526" y="0" type="line"/>
      <point x="551" y="0" type="line"/>
      <point x="551" y="690" type="line"/>
      <point x="526" y="690" type="line"/>
    </contour>
    <contour>
      <point x="615" y="-151" type="line"/>
      <point x="633" y="-151" type="line"/>
      <point x="633" y="7" type="line"/>
      <point x="609" y="7" type="line"/>
    </contour>
  </outline>
</glyph>
<glyph name="Softsign-cy" format="2">
  <advance width="587"/>
  <unicode hex="042C"/>
  <outline>
    <contour>
      <point x="322" y="384" type="curve" smooth="yes"/>
      <point x="116" y="384" type="line"/>
      <point x="116" y="361" type="line"/>
      <point x="322" y="361" type="line" smooth="yes"/>
      <point x="462" y="361"/>
      <point x="503" y="315"/>
      <point x="503" y="188" type="curve" smooth="yes"/>
      <point x="503" y="47"/>
      <point x="452" y="15"/>
      <point x="322" y="15" type="curve" smooth="yes"/>
      <point x="220" y="15"/>
      <point x="145" y="16"/>
      <point x="117" y="18" type="curve"/>
      <point x="103" y="0" type="line"/>
      <point x="174" y="-7"/>
      <point x="218" y="-8"/>
      <point x="322" y="-8" type="curve" smooth="yes"/>
      <point x="471" y="-8"/>
      <point x="529" y="33"/>
      <point x="529" y="188" type="curve" smooth="yes"/>
      <point x="529" y="329"/>
      <point x="481" y="384"/>
    </contour>
    <contour>
      <point x="128" y="690" type="line"/>
      <point x="103" y="690" type="line"/>
      <point x="103" y="0" type="line"/>
      <point x="128" y="0" type="line"/>
    </contour>
  </outline>
</glyph>
<glyph name="Ia-cy" format="2">
  <advance width="602"/>
  <unicode hex="042F"/>
  <outline>
    <contour>
      <point x="288" y="698" type="curve" smooth="yes"/>
      <point x="152" y="698"/>
      <point x="89" y="648"/>
      <point x="89" y="494" type="curve" smooth="yes"/>
      <point x="89" y="412"/>
      <point x="126" y="325"/>
      <point x="207" y="312" type="curve"/>
      <point x="208" y="306" type="line"/>
      <point x="174" y="295"/>
      <point x="149" y="263"/>
      <point x="130" y="211" type="curve" smooth="yes"/>
      <point x="54" y="0" type="line"/>
      <point x="82" y="0" type="line"/>
      <point x="156" y="208" type="line" smooth="yes"/>
      <point x="179" y="274"/>
      <point x="216" y="300"/>
      <point x="269" y="300" type="curve" smooth="yes"/>
      <point x="384" y="300"/>
      <point x="467" y="303"/>
      <point x="489" y="305" type="curve"/>
      <point x="486" y="323" type="line"/>
      <point x="271" y="323" type="line" smooth="yes"/>
      <point x="156" y="323"/>
      <point x="115" y="400"/>
      <point x="115" y="494" type="curve" smooth="yes"/>
      <point x="115" y="633"/>
      <point x="171" y="675"/>
      <point x="288" y="675" type="curve" smooth="yes"/>
      <point x="384" y="675"/>
      <point x="459" y="674"/>
      <point x="485" y="672" type="curve"/>
      <point x="499" y="690" type="line"/>
      <point x="432" y="697"/>
      <point x="386" y="698"/>
    </contour>
    <contour>
      <point x="499" y="690" type="line"/>
      <point x="474" y="690" type="line"/>
      <point x="474" y="0" type="line"/>
      <point x="499" y="0" type="line"/>
    </contour>
  </outline>
</glyph>
<glyph name="en-cy" format="2">
  <advance width="566"/>
  <unicode hex="043D"/>
  <outline>
    <contour>
      <point x="118" y="480" type="line"/>
      <point x="94" y="480" type="line"/>
      <point x="94" y="0" type="line"/>
      <point x="118" y="0" type="line"/>
    </contour>
    <contour>
      <point x="457" y="267" type="line"/>
      <point x="112" y="267" type="line"/>
      <point x="112" y="246" type="line"/>
      <point x="457" y="246" type="line"/>
    </contour>
    <contour>
      <point x="472" y="480" type="line"/>
      <point x="448" y="480" type="line"/>
      <point x="448" y="0" type="line"/>
      <point x="472" y="0" type="line"/>
    </contour>
  </outline>
</glyph>
<glyph name="er-cy" format="2">
  <advance width="561"/>
  <unicode hex="0440"/>
  <outline>
    <contour>
      <point x="316" y="492" type="curve" smooth="yes"/>
      <point x="250" y="492"/>
      <point x="188" y="459"/>
      <point x="117" y="393" type="curve"/>
      <point x="115" y="369" type="line"/>
      <point x="197" y="439"/>
      <point x="252" y="469"/>
      <point x="316" y="469" type="curve" smooth="yes"/>
      <point x="423" y="469"/>
      <point x="465" y="408"/>
      <point x="465" y="240" type="curve" smooth="yes"/>
      <point x="465" y="72"/>
      <point x="423" y="11"/>
      <point x="316" y="11" type="curve" smooth="yes"/>
      <point x="252" y="11"/>
      <point x="197" y="28"/>
      <point x="115" y="61" type="curve"/>
      <point x="115" y="42" type="line"/>
      <point x="186" y="7"/>
      <point x="250" y="-12"/>
      <point x="316" y="-12" type="curve" smooth="yes"/>
      <point x="442" y="-12"/>
      <point x="490" y="58"/>
      <point x="490" y="240" type="curve" smooth="yes"/>
      <point x="490" y="422"/>
      <point x="442" y="492"/>
    </contour>
    <contour>
      <point x="113" y="480" type="line"/>
      <point x="95" y="480" type="line"/>
      <point x="95" y="-210" type="line"/>
      <point x="119" y="-210" type="line"/>
      <point x="119" y="-51" type="line"/>
      <point x="119" y="-16"/>
      <point x="120" y="7"/>
      <point x="116" y="42" type="curve"/>
      <point x="119" y="54" type="line"/>
      <point x="119" y="389" type="line"/>
      <point x="117" y="393" type="line"/>
    </contour>
  </outline>
</glyph>
<glyph name="ef-cy" format="2">
  <advance width="696"/>
  <unicode hex="0444"/>
  <outline>
    <contour>
      <point x="348" y="492" type="curve" smooth="yes"/>
      <point x="144" y="492"/>
      <point x="68" y="421"/>
      <point x="68" y="240" type="curve" smooth="yes"/>
      <point x="68" y="59"/>
      <point x="144" y="-12"/>
      <point x="348" y="-12" type="curve" smooth="yes"/>
      <point x="552" y="-12"/>
      <point x="628" y="59"/>
      <point x="628" y="240" type="curve" smooth="yes"/>
      <point x="628" y="421"/>
      <point x="552" y="492"/>
    </contour>
    <contour>
      <point x="348" y="469" type="curve" smooth="yes"/>
      <point x="533" y="469"/>
      <point x="603" y="413"/>
      <point x="603" y="240" type="curve" smooth="yes"/>
      <point x="603" y="67"/>
      <point x="533" y="11"/>
      <point x="348" y="11" type="curve" smooth="yes"/>
      <point x="163" y="11"/>
      <point x="93" y="67"/>
      <point x="93" y="240" type="curve" smooth="yes"/>
      <point x="93" y="413"/>
      <point x="163" y="469"/>
    </contour>
    <contour>
      <point x="361" y="700" type="line"/>
      <point x="336" y="700" type="line"/>
      <point x="336" y="486" type="line"/>
      <point x="336" y="475" type="line"/>
      <point x="336" y="4" type="line"/>
      <point x="336" y="-4" type="line"/>
      <point x="336" y="-210" type="line"/>
      <point x="361" y="-210" type="line"/>
      <point x="361" y="-4" type="line"/>
      <point x="361" y="4" type="line"/>
      <point x="361" y="475" type="line"/>
      <point x="361" y="486" type="line"/>
    </contour>
  </outline>
</glyph>
<glyph name="sha-cy" format="2">
  <advance width="781"/>
  <unicode hex="0448"/>
  <outline>
    <contour>
      <point x="119" y="480" type="line"/>
      <point x="94" y="480" type="line"/>
      <point x="94" y="0" type="line"/>
      <point x="119" y="0" type="line"/>
    </contour>
    <contour>
      <point x="676" y="21" type="line"/>
      <point x="112" y="21" type="line"/>
      <point x="112" y="0" type="line"/>
      <point x="676" y="0" type="line"/>
    </contour>
    <contour>
      <point x="403" y="480" type="line"/>
      <point x="378" y="480" type="line"/>
      <point x="378" y="0" type="line"/>
      <point x="403" y="0" type="line"/>
    </contour>
    <contour>
      <point x="687" y="480" type="line"/>
      <point x="663" y="480" type="line"/>
      <point x="663" y="0" type="line"/>
      <point x="687" y="0" type="line"/>
    </contour>
  </outline>
</glyph>
<glyph name="shcha-cy" format="2">
  <advance width="795"/>
  <unicode hex="0449"/>
  <outline>
    <contour>
      <point x="119" y="480" type="line"/>
      <point x="95" y="480" type="line"/>
      <point x="95" y="0" type="line"/>
      <point x="119" y="0" type="line"/>
    </contour>
    <contour>
      <point x="742" y="21" type="line"/>
      <point x="113" y="21" type="line"/>
      <point x="113" y="0" type="line"/>
      <point x="742" y="0" type="line"/>
    </contour>
    <contour>
      <point x="403" y="480" type="line"/>
      <point x="379" y="480" type="line"/>
      <point x="379" y="0" type="line"/>
      <point x="403" y="0" type="line"/>
    </contour>
    <contour>
      <point x="688" y="480" type="line"/>
      <point x="665" y="480" type="line"/>
      <point x="665" y="0" type="line"/>
      <point x="688" y="0" type="line"/>
    </contour>
    <contour>
      <point x="742" y="5" type="line"/>
      <point x="719" y="5" type="line"/>
      <point x="724" y="-143" type="line"/>
      <point x="742" y="-143" type="line"/>
    </contour>
  </outline>
</glyph>
<glyph name="ia-cy" format="2">
  <advance width="525"/>
  <unicode hex="044F"/>
  <outline>
    <contour>
      <point x="233" y="482" type="curve" smooth="yes"/>
      <point x="118" y="482"/>
      <point x="78" y="419"/>
      <point x="78" y="349" type="curve" smooth="yes"/>
      <point x="78" y="269"/>
      <point x="114" y="208"/>
      <point x="198" y="207" type="curve"/>
      <point x="198" y="204" type="line"/>
      <point x="151" y="198"/>
      <point x="115" y="179"/>
      <point x="102" y="139" type="curve" smooth="yes"/>
      <point x="56" y="0" type="line"/>
      <point x="83" y="0" type="line"/>
      <point x="123" y="128" type="line" smooth="yes"/>
      <point x="136" y="169"/>
      <point x="178" y="195"/>
      <point x="247" y="195" type="curve" smooth="yes"/>
      <point x="336" y="195"/>
      <point x="410" y="195"/>
      <point x="421" y="195" type="curve"/>
      <point x="419" y="216" type="line"/>
      <point x="247" y="216" type="line" smooth="yes"/>
      <point x="143" y="216"/>
      <point x="103" y="264"/>
      <point x="103" y="345" type="curve" smooth="yes"/>
      <point x="103" y="407"/>
      <point x="136" y="460"/>
      <point x="233" y="460" type="curve" smooth="yes"/>
      <point x="325" y="460"/>
      <point x="399" y="459"/>
      <point x="418" y="457" type="curve"/>
      <point x="430" y="476" type="line"/>
      <point x="366" y="481"/>
      <point x="327" y="482"/>
    </contour>
    <contour>
      <point x="430" y="476" type="line"/>
      <point x="406" y="476" type="line"/>
      <point x="406" y="0" type="line"/>
      <point x="430" y="0" type="line"/>
    </contour>
  </outline>
</glyph>
<glyph name="dje-cy" format="2">
  <advance width="566"/>
  <unicode hex="0452"/>
  <outline>
    <contour>
      <point x="369" y="392" type="curve" smooth="yes"/>
      <point x="294" y="392"/>
      <point x="218" y="354"/>
      <point x="135" y="292" type="curve"/>
      <point x="135" y="269" type="line"/>
      <point x="229" y="335"/>
      <point x="291" y="369"/>
      <point x="364" y="369" type="curve" smooth="yes"/>
      <point x="438" y="369"/>
      <point x="474" y="334"/>
      <point x="474" y="258" type="curve" smooth="yes"/>
      <point x="474" y="-45" type="line" smooth="yes"/>
      <point x="474" y="-110"/>
      <point x="453" y="-155"/>
      <point x="419" y="-200" type="curve"/>
      <point x="432" y="-210" type="line"/>
      <point x="472" y="-165"/>
      <point x="498" y="-111"/>
      <point x="498" y="-46" type="curve" smooth="yes"/>
      <point x="498" y="261" type="line" smooth="yes"/>
      <point x="498" y="347"/>
      <point x="454" y="392"/>
    </contour>
    <contour>
      <point x="140" y="700" type="line"/>
      <point x="114" y="700" type="line"/>
      <point x="114" y="0" type="line"/>
      <point x="138" y="0" type="line"/>
      <point x="138" y="276" type="line"/>
      <point x="135" y="292" type="line"/>
      <point x="139" y="319"/>
      <point x="140" y="350"/>
      <point x="140" y="385" type="curve" smooth="yes"/>
    </contour>
    <contour>
      <point x="358" y="531" type="line"/>
      <point x="33" y="531" type="line"/>
      <point x="33" y="511" type="line"/>
      <point x="358" y="511" type="line"/>
    </contour>
  </outline>
</glyph>
<glyph name="yat-cy" format="2">
  <advance width="514"/>
  <unicode hex="0463"/>
  <outline>
    <contour>
      <point x="287" y="268" type="curve" smooth="yes"/>
      <point x="115" y="268" type="line"/>
      <point x="115" y="247" type="line"/>
      <point x="287" y="247" type="line" smooth="yes"/>
      <point x="401" y="247"/>
      <point x="434" y="217"/>
      <point x="434" y="132" type="curve" smooth="yes"/>
      <point x="434" y="38"/>
      <point x="393" y="16"/>
      <point x="287" y="16" type="curve" smooth="yes"/>
      <point x="202" y="16"/>
      <point x="139" y="17"/>
      <point x="116" y="18" type="curve"/>
      <point x="104" y="0" type="line"/>
      <point x="163" y="-5"/>
      <point x="201" y="-6"/>
      <point x="288" y="-6" type="curve" smooth="yes"/>
      <point x="412" y="-6"/>
      <point x="460" y="23"/>
      <point x="460" y="131" type="curve" smooth="yes"/>
      <point x="460" y="230"/>
      <point x="420" y="268"/>
    </contour>
    <contour>
      <point x="128" y="690" type="line"/>
      <point x="104" y="690" type="line"/>
      <point x="104" y="0" type="line"/>
      <point x="128" y="0" type="line"/>
    </contour>
    <contour>
      <point x="4" y="460" type="line"/>
      <point x="312" y="460" type="line"/>
      <point x="312" y="480" type="line"/>
      <point x="4" y="480" type="line"/>
    </contour>
  </outline>
</glyph>
<glyph name="Izhitsa-cy" format="2">
  <advance width="632"/>
  <unicode hex="0474"/>
  <outline>
    <contour>
      <point x="275" y="0" type="curve" smooth="yes"/>
      <point x="317" y="0" type="line" smooth="yes"/>
      <point x="323" y="0"/>
      <point x="328" y="4"/>
      <point x="330" y="9" type="curve" smooth="yes"/>
      <point x="507" y="596" type="line" smooth="yes"/>
      <point x="528" y="666"/>
      <point x="551" y="682"/>
      <point x="604" y="682" type="curve" smooth="yes"/>
      <point x="609" y="682"/>
      <point x="614" y="682"/>
      <point x="619" y="682" type="curve"/>
      <point x="620" y="702" type="line"/>
      <point x="611" y="703"/>
      <point x="602" y="704"/>
      <point x="595" y="704" type="curve" smooth="yes"/>
      <point x="520" y="704"/>
      <point x="499" y="659"/>
      <point x="484" y="607" type="curve" smooth="yes"/>
      <point x="335" y="97" type="line" smooth="yes"/>
      <point x="316" y="33"/>
      <point x="319" y="49"/>
      <point x="310" y="22" type="curve"/>
      <point x="282" y="22" type="line"/>
      <point x="274" y="47"/>
      <point x="266" y="71"/>
      <point x="257" y="96" type="curve" smooth="yes"/>
      <point x="53" y="690" type="line"/>
      <point x="26" y="690" type="line"/>
      <point x="262" y="9" type="line" smooth="yes"/>
      <point x="264" y="4"/>
      <point x="269" y="0"/>
    </contour>
  </outline>
</glyph>
<glyph name="izhitsa-cy" format="2">
  <advance width="537"/>
  <unicode hex="0475"/>
  <outline>
    <contour>
      <point x="239" y="0" type="curve" smooth="yes"/>
      <point x="277" y="0" type="line" smooth="yes"/>
      <point x="282" y="0"/>
      <point x="288" y="3"/>
      <point x="289" y="8" type="curve" smooth="yes"/>
      <point x="436" y="414" type="line" smooth="yes"/>
      <point x="453" y="461"/>
      <point x="472" y="472"/>
      <point x="515" y="472" type="curve" smooth="yes"/>
      <point x="520" y="472"/>
      <point x="525" y="472"/>
      <point x="529" y="472" type="curve"/>
      <point x="529" y="491" type="line"/>
      <point x="522" y="492"/>
      <point x="515" y="493"/>
      <point x="508" y="493" type="curve" smooth="yes"/>
      <point x="445" y="493"/>
      <point x="425" y="463"/>
      <point x="412" y="424" type="curve" smooth="yes"/>
      <point x="290" y="74" type="line" smooth="yes"/>
      <point x="276" y="32"/>
      <point x="277" y="39"/>
      <point x="269" y="21" type="curve"/>
      <point x="246" y="21" type="line"/>
      <point x="240" y="38"/>
      <point x="232" y="55"/>
      <point x="225" y="73" type="curve" smooth="yes"/>
      <point x="58" y="483" type="line"/>
      <point x="30" y="483" type="line"/>
      <point x="226" y="8" type="line" smooth="yes"/>
      <point x="228" y="3"/>
      <point x="233" y="0"/>
    </contour>
  </outline>
</glyph>
<glyph name="Semisoftsign-cy" format="2">
  <advance width="621"/>
  <unicode hex="048C"/>
  <outline>
    <contour>
      <point x="24" y="532" type="line"/>
      <point x="422" y="532" type="line"/>
      <point x="422" y="555" type="line"/>
      <point x="24" y="555" type="line"/>
    </contour>
    <component base="Softsign-cy" xOffset="41"/>
  </outline>
</glyph>
<glyph name="ghestroke-cy" format="2">
  <advance width="438"/>
  <unicode hex="0493"/>
  <outline>
    <contour>
      <point x="3" y="209" type="line"/>
      <point x="294" y="209" type="line"/>
      <point x="294" y="229" type="line"/>
      <point x="3" y="229" type="line"/>
    </contour>
    <component base="ge-cy"/>
  </outline>
</glyph>
<glyph name="zedescender-cy" format="2">
  <advance width="472"/>
  <unicode hex="0499"/>
  <outline>
    <contour>
      <point x="236" y="5" type="line"/>
      <point x="209" y="5" type="line"/>
      <point x="214" y="-168" type="line"/>
      <point x="231" y="-168" type="line"/>
    </contour>
    <component base="ze-cy"/>
  </outline>
</glyph>
<glyph name="Pemiddlehook-cy" format="2">
  <advance width="1013"/>
  <unicode hex="04A6"/>
  <outline>
    <contour>
      <point x="702" y="-141" type="line"/>
      <point x="875" y="-135"/>
      <point x="954" y="-61"/>
      <point x="954" y="169" type="curve" smooth="yes"/>
      <point x="954" y="382"/>
      <point x="880" y="432"/>
      <point x="782" y="432" type="curve" smooth="yes"/>
      <point x="698" y="432"/>
      <point x="629" y="404"/>
      <point x="546" y="342" type="curve"/>
      <point x="546" y="319" type="line"/>
      <point x="624" y="373"/>
      <point x="684" y="409"/>
      <point x="779" y="409" type="curve" smooth="yes"/>
      <point x="865" y="409"/>
      <point x="929" y="370"/>
      <point x="929" y="168" type="curve" smooth="yes"/>
      <point x="929" y="-60"/>
      <point x="847" y="-110"/>
      <point x="700" y="-122" type="curve"/>
    </contour>
    <contour>
      <point x="103" y="0" type="line"/>
      <point x="128" y="0" type="line"/>
      <point x="128" y="690" type="line"/>
      <point x="103" y="690" type="line"/>
    </contour>
    <contour>
      <point x="533" y="0" type="line"/>
      <point x="558" y="0" type="line"/>
      <point x="558" y="690" type="line"/>
      <point x="533" y="690" type="line"/>
    </contour>
    <contour>
      <point x="120" y="668" type="line"/>
      <point x="544" y="668" type="line"/>
      <point x="544" y="690" type="line"/>
      <point x="120" y="690" type="line"/>
    </contour>
  </outline>
</glyph>
<glyph name="Haabkhasian-cy" format="2">
  <advance width="856"/>
  <unicode hex="04A8"/>
  <outline>
    <contour>
      <point x="327" y="683" type="curve"/>
      <point x="327" y="707" type="line"/>
      <point x="152" y="707"/>
      <point x="76" y="613"/>
      <point x="76" y="335" type="curve" smooth="yes"/>
      <point x="76" y="99"/>
      <point x="168" y="-12"/>
      <point x="376" y="-12" type="curve" smooth="yes"/>
      <point x="559" y="-12"/>
      <point x="745" y="84"/>
      <point x="745" y="390" type="curve" smooth="yes"/>
      <point x="745" y="618"/>
      <point x="682" y="700"/>
      <point x="544" y="700" type="curve" smooth="yes"/>
      <point x="408" y="700"/>
      <point x="345" y="616"/>
      <point x="345" y="384" type="curve" smooth="yes"/>
      <point x="345" y="106"/>
      <point x="499" y="-12"/>
      <point x="685" y="-12" type="curve" smooth="yes"/>
      <point x="766" y="-12"/>
      <point x="801" y="3"/>
      <point x="821" y="14" type="curve"/>
      <point x="816" y="29" type="line"/>
      <point x="782" y="17"/>
      <point x="752" y="10"/>
      <point x="690" y="10" type="curve" smooth="yes"/>
      <point x="535" y="10"/>
      <point x="371" y="102"/>
      <point x="371" y="381" type="curve" smooth="yes"/>
      <point x="371" y="599"/>
      <point x="425" y="677"/>
      <point x="544" y="677" type="curve" smooth="yes"/>
      <point x="665" y="677"/>
      <point x="719" y="601"/>
      <point x="719" y="388" type="curve" smooth="yes"/>
      <point x="719" y="98"/>
      <point x="550" y="11"/>
      <point x="375" y="11" type="curve" smooth="yes"/>
      <point x="194" y="11"/>
      <point x="102" y="106"/>
      <point x="102" y="336" type="curve" smooth="yes"/>
      <point x="102" y="596"/>
      <point x="168" y="683"/>
    </contour>
  </outline>
</glyph>
<glyph name="tedescender-cy" format="2">
  <advance width="470"/>
  <unicode hex="04AD"/>
  <outline>
    <contour>
      <point x="247" y="480" type="line"/>
      <point x="222" y="480" type="line"/>
      <point x="222" y="0" type="line"/>
      <point x="247" y="0" type="line"/>
    </contour>
    <contour>
      <point x="450" y="480" type="line"/>
      <point x="20" y="480" type="line"/>
      <point x="20" y="458" type="line"/>
      <point x="450" y="458" type="line"/>
    </contour>
    <contour>
      <point x="300" y="21" type="line"/>
      <point x="232" y="21" type="line"/>
      <point x="232" y="0" type="line"/>
      <point x="300" y="0" type="line"/>
    </contour>
    <contour>
      <point x="300" y="5" type="line"/>
      <point x="277" y="5" type="line"/>
      <point x="283" y="-143" type="line"/>
      <point x="300" y="-143" type="line"/>
    </contour>
  </outline>
</glyph>
<glyph name="tetse-cy" format="2">
  <advance width="662"/>
  <unicode hex="04B5"/>
  <outline>
    <contour>
      <point x="546" y="0" type="line"/>
      <point x="571" y="0" type="line"/>
      <point x="571" y="480" type="line"/>
      <point x="546" y="480" type="line"/>
    </contour>
    <contour>
      <point x="197" y="0" type="line"/>
      <point x="222" y="0" type="line"/>
      <point x="222" y="480" type="line"/>
      <point x="197" y="480" type="line"/>
    </contour>
    <contour>
      <point x="214" y="0" type="line"/>
      <point x="621" y="0" type="line"/>
      <point x="621" y="22" type="line"/>
      <point x="214" y="22" type="line"/>
    </contour>
    <contour>
      <point x="603" y="-151" type="line"/>
      <point x="621" y="-151" type="line"/>
      <point x="621" y="7" type="line"/>
      <point x="597" y="7" type="line"/>
    </contour>
    <contour>
      <point x="10" y="458" type="line"/>
      <point x="413" y="458" type="line"/>
      <point x="413" y="480" type="line"/>
      <point x="10" y="480" type="line"/>
    </contour>
  </outline>
</glyph>
<glyph name="cheverticalstroke-cy" format="2">
  <advance width="506"/>
  <unicode hex="04B9"/>
  <outline>
    <contour>
      <point x="89" y="480" type="line"/>
      <point x="65" y="480" type="line"/>
      <point x="65" y="284" type="line" smooth="yes"/>
      <point x="65" y="216"/>
      <point x="100" y="182"/>
      <point x="166" y="182" type="curve" smooth="yes"/>
      <point x="240" y="182"/>
      <point x="316" y="198"/>
      <point x="398" y="242" type="curve"/>
      <point x="397" y="263" type="line"/>
      <point x="310" y="220"/>
      <point x="252" y="206"/>
      <point x="172" y="206" type="curve" smooth="yes"/>
      <point x="116" y="206"/>
      <point x="89" y="231"/>
      <point x="89" y="288" type="curve" smooth="yes"/>
    </contour>
    <contour>
      <point x="411" y="480" type="line"/>
      <point x="387" y="480" type="line"/>
      <point x="387" y="0" type="line"/>
      <point x="411" y="0" type="line"/>
    </contour>
    <contour>
      <point x="229" y="59" type="line"/>
      <point x="249" y="59" type="line"/>
      <point x="249" y="360" type="line"/>
      <point x="229" y="360" type="line"/>
    </contour>
  </outline>
</glyph>
<glyph name="cheabkhasian-cy" format="2">
  <advance width="591"/>
  <unicode hex="04BD"/>
  <outline>
    <contour>
      <point x="347" y="-12" type="curve" smooth="yes"/>
      <point x="399" y="-12"/>
      <point x="485" y="-4"/>
      <point x="517" y="6" type="curve"/>
      <point x="513" y="24" type="line"/>
      <point x="476" y="18"/>
      <point x="415" y="11"/>
      <point x="350" y="11" type="curve" smooth="yes"/>
      <point x="216" y="11"/>
      <point x="158" y="70"/>
      <point x="158" y="243" type="curve" smooth="yes"/>
      <point x="158" y="409"/>
      <point x="206" y="469"/>
      <point x="340" y="469" type="curve" smooth="yes"/>
      <point x="447" y="469"/>
      <point x="501" y="434"/>
      <point x="503" y="354" type="curve" smooth="yes"/>
      <point x="505" y="286"/>
      <point x="484" y="249"/>
      <point x="425" y="249" type="curve" smooth="yes"/>
      <point x="132" y="249" type="line" smooth="yes"/>
      <point x="57" y="249"/>
      <point x="26" y="282"/>
      <point x="39" y="358" type="curve"/>
      <point x="17" y="358" type="line"/>
      <point x="4" y="257"/>
      <point x="49" y="227"/>
      <point x="132" y="227" type="curve" smooth="yes"/>
      <point x="425" y="227" type="line" smooth="yes"/>
      <point x="503" y="227"/>
      <point x="530" y="271"/>
      <point x="528" y="356" type="curve" smooth="yes"/>
      <point x="526" y="447"/>
      <point x="464" y="492"/>
      <point x="339" y="492" type="curve" smooth="yes"/>
      <point x="191" y="492"/>
      <point x="133" y="426"/>
      <point x="133" y="242" type="curve" smooth="yes"/>
      <point x="133" y="59"/>
      <point x="195" y="-12"/>
    </contour>
  </outline>
</glyph>
<glyph name="Dzeabkhasian-cy" format="2">
  <advance width="508"/>
  <unicode hex="04E0"/>
  <outline>
    <contour>
      <point x="224" y="-8" type="curve" smooth="yes"/>
      <point x="401" y="-8"/>
      <point x="451" y="69"/>
      <point x="451" y="197" type="curve" smooth="yes"/>
      <point x="451" y="336"/>
      <point x="377" y="397"/>
      <point x="207" y="397" type="curve" smooth="yes"/>
      <point x="139" y="397" type="line"/>
      <point x="142" y="390" type="line"/>
      <point x="430" y="667" type="line"/>
      <point x="430" y="682" type="line" smooth="yes"/>
      <point x="430" y="688"/>
      <point x="428" y="690"/>
      <point x="422" y="690" type="curve" smooth="yes"/>
      <point x="33" y="690" type="line"/>
      <point x="33" y="668" type="line"/>
      <point x="408" y="668" type="line"/>
      <point x="408" y="676" type="line"/>
      <point x="121" y="397" type="line"/>
      <point x="121" y="377" type="line"/>
      <point x="207" y="377" type="line" smooth="yes"/>
      <point x="361" y="377"/>
      <point x="425" y="321"/>
      <point x="425" y="196" type="curve" smooth="yes"/>
      <point x="425" y="81"/>
      <point x="377" y="15"/>
      <point x="222" y="15" type="curve" smooth="yes"/>
      <point x="152" y="15"/>
      <point x="43" y="23"/>
      <point x="29" y="24" type="curve"/>
      <point x="25" y="6" type="line"/>
      <point x="91" y="-5"/>
      <point x="181" y="-8"/>
    </contour>
  </outline>
</glyph>
<glyph name="hastroke-cy" format="2">
  <advance width="505"/>
  <unicode hex="04FF"/>
  <outline>
    <contour>
      <point x="428" y="261" type="line"/>
      <point x="78" y="261" type="line"/>
      <point x="78" y="241" type="line"/>
      <point x="428" y="241" type="line"/>
    </contour>
    <component base="ha-cy"/>
  </outline>
</glyph>
<glyph name="pedescender-cy" format="2">
  <advance width="564"/>
  <unicode hex="0525"/>
  <outline>
    <contour>
      <point x="525" y="21" type="line"/>
      <point x="458" y="21" type="line"/>
      <point x="458" y="0" type="line"/>
      <point x="525" y="0" type="line"/>
    </contour>
    <contour>
      <point x="525" y="5" type="line"/>
      <point x="502" y="5" type="line"/>
      <point x="508" y="-143" type="line"/>
      <point x="525" y="-143" type="line"/>
    </contour>
    <component base="pe-cy"/>
  </outline>
</glyph>
<glyph name="figuredash" format="2">
  <advance width="553"/>
  <unicode hex="2012"/>
  <outline>
    <contour>
      <point x="467" y="262" type="line"/>
      <point x="86" y="262" type="line"/>
      <point x="86" y="240" type="line"/>
      <point x="467" y="240" type="line"/>
    </contour>
  </outline>
</glyph>
<glyph name="foursuperior" format="2">
  <advance width="412"/>
  <unicode hex="2074"/>
  <outline>
    <contour>
      <point x="190" y="747" type="line"/>
      <point x="61" y="515" type="line" smooth="yes"/>
      <point x="47" y="489"/>
      <point x="59" y="460"/>
      <point x="87" y="460" type="curve" smooth="yes"/>
      <point x="296" y="462" type="line"/>
      <point x="347" y="465" type="line"/>
      <point x="347" y="480" type="line"/>
      <point x="97" y="480" type="line" smooth="yes"/>
      <point x="77" y="480"/>
      <point x="75" y="494"/>
      <point x="85" y="511" type="curve" smooth="yes"/>
      <point x="215" y="747" type="line"/>
    </contour>
    <contour>
      <point x="296" y="673" type="line"/>
      <point x="276" y="673" type="line"/>
      <point x="273" y="606" type="line"/>
      <point x="273" y="355" type="line"/>
      <point x="296" y="355" type="line"/>
    </contour>
  </outline>
</glyph>
<glyph name="sixsuperior" format="2">
  <advance width="413"/>
  <unicode hex="2076"/>
  <outline>
    <contour>
      <point x="232" y="753" type="curve" smooth="yes"/>
      <point x="125" y="753"/>
      <point x="78" y="726"/>
      <point x="78" y="525" type="curve" smooth="yes"/>
      <point x="78" y="397"/>
      <point x="104" y="347"/>
      <point x="206" y="347" type="curve" smooth="yes"/>
      <point x="308" y="347"/>
      <point x="336" y="395"/>
      <point x="336" y="473" type="curve" smooth="yes"/>
      <point x="336" y="576"/>
      <point x="305" y="608"/>
      <point x="220" y="608" type="curve" smooth="yes"/>
      <point x="166" y="608"/>
      <point x="134" y="592"/>
      <point x="97" y="543" type="curve"/>
      <point x="99" y="525" type="line"/>
      <point x="141" y="575"/>
      <point x="173" y="587"/>
      <point x="219" y="587" type="curve" smooth="yes"/>
      <point x="294" y="587"/>
      <point x="311" y="561"/>
      <point x="311" y="475" type="curve" smooth="yes"/>
      <point x="311" y="404"/>
      <point x="295" y="368"/>
      <point x="208" y="368" type="curve" smooth="yes"/>
      <point x="119" y="368"/>
      <point x="102" y="413"/>
      <point x="102" y="524" type="curve" smooth="yes"/>
      <point x="102" y="710"/>
      <point x="133" y="732"/>
      <point x="232" y="732" type="curve" smooth="yes"/>
      <point x="261" y="732"/>
      <point x="285" y="726"/>
      <point x="307" y="721" type="curve"/>
      <point x="312" y="740" type="line"/>
      <point x="285" y="748"/>
      <point x="253" y="753"/>
    </contour>
  </outline>
</glyph>
<glyph name="ninesuperior" format="2">
  <advance width="414"/>
  <unicode hex="2079"/>
  <outline>
    <contour>
      <point x="190" y="347" type="curve" smooth="yes"/>
      <point x="294" y="347"/>
      <point x="339" y="377"/>
      <point x="339" y="575" type="curve" smooth="yes"/>
      <point x="339" y="703"/>
      <point x="315" y="753"/>
      <point x="213" y="753" type="curve" smooth="yes"/>
      <point x="118" y="753"/>
      <point x="81" y="698"/>
      <point x="81" y="627" type="curve" smooth="yes"/>
      <point x="81" y="528"/>
      <point x="116" y="492"/>
      <point x="197" y="492" type="curve" smooth="yes"/>
      <point x="251" y="492"/>
      <point x="283" y="508"/>
      <point x="320" y="557" type="curve"/>
      <point x="318" y="575" type="line"/>
      <point x="276" y="525"/>
      <point x="244" y="513"/>
      <point x="198" y="513" type="curve" smooth="yes"/>
      <point x="127" y="513"/>
      <point x="106" y="544"/>
      <point x="106" y="625" type="curve" smooth="yes"/>
      <point x="106" y="690"/>
      <point x="130" y="732"/>
      <point x="211" y="732" type="curve" smooth="yes"/>
      <point x="300" y="732"/>
      <point x="315" y="687"/>
      <point x="315" y="576" type="curve" smooth="yes"/>
      <point x="315" y="394"/>
      <point x="285" y="368"/>
      <point x="190" y="368" type="curve" smooth="yes"/>
      <point x="157" y="368"/>
      <point x="126" y="375"/>
      <point x="105" y="381" type="curve"/>
      <point x="100" y="362" type="line"/>
      <point x="126" y="353"/>
      <point x="165" y="347"/>
    </contour>
  </outline>
</glyph>
<glyph name="peso" format="2">
  <advance width="642"/>
  <unicode hex="20B1"/>
  <outline>
    <contour>
      <point x="324" y="698" type="curve" smooth="yes"/>
      <point x="221" y="698"/>
      <point x="173" y="697"/>
      <point x="103" y="690" type="curve"/>
      <point x="117" y="675" type="line"/>
      <point x="324" y="675" type="line" smooth="yes"/>
      <point x="451" y="675"/>
      <point x="497" y="638"/>
      <point x="497" y="495" type="curve" smooth="yes"/>
      <point x="497" y="352"/>
      <point x="451" y="315"/>
      <point x="324" y="315" type="curve" smooth="yes"/>
      <point x="116" y="315" type="line"/>
      <point x="113" y="297" type="line"/>
      <point x="135" y="295"/>
      <point x="218" y="292"/>
      <point x="324" y="292" type="curve" smooth="yes"/>
      <point x="470" y="292"/>
      <point x="523" y="335"/>
      <point x="523" y="495" type="curve" smooth="yes"/>
      <point x="523" y="653"/>
      <point x="470" y="698"/>
    </contour>
    <contour>
      <point x="128" y="690" type="line"/>
      <point x="103" y="690" type="line"/>
      <point x="103" y="0" type="line"/>
      <point x="128" y="0" type="line"/>
    </contour>
    <contour>
      <point x="614" y="551" type="line"/>
      <point x="8" y="551" type="line"/>
      <point x="8" y="530" type="line"/>
      <point x="606" y="530" type="line"/>
    </contour>
    <contour>
      <point x="614" y="451" type="line"/>
      <point x="8" y="451" type="line"/>
      <point x="8" y="430" type="line"/>
      <point x="606" y="430" type="line"/>
    </contour>
  </outline>
</glyph>
<glyph name="guarani" format="2">
  <advance width="622"/>
  <unicode hex="20B2"/>
  <outline>
    <contour>
      <point x="334" y="702" type="curve" smooth="yes"/>
      <point x="143" y="702"/>
      <point x="76" y="608"/>
      <point x="76" y="345" type="curve" smooth="yes"/>
      <point x="76" y="95"/>
      <point x="140" y="-12"/>
      <point x="304" y="-12" type="curve" smooth="yes"/>
      <point x="395" y="-12"/>
      <point x="470" y="34"/>
      <point x="524" y="96" type="curve"/>
      <point x="518" y="114" type="line"/>
      <point x="465" y="66"/>
      <point x="405" y="11"/>
      <point x="306" y="11" type="curve" smooth="yes"/>
      <point x="158" y="11"/>
      <point x="102" y="111"/>
      <point x="102" y="345" type="curve" smooth="yes"/>
      <point x="102" y="593"/>
      <point x="161" y="679"/>
      <point x="334" y="679" type="curve" smooth="yes"/>
      <point x="418" y="679"/>
      <point x="461" y="676"/>
      <point x="524" y="667" type="curve"/>
      <point x="530" y="685" type="line"/>
      <point x="471" y="697"/>
      <point x="424" y="702"/>
    </contour>
    <contour>
      <point x="516" y="400" type="line"/>
      <point x="516" y="111" type="line"/>
      <point x="517" y="99" type="line"/>
      <point x="524" y="0" type="line"/>
      <point x="541" y="0" type="line"/>
      <point x="541" y="400" type="line"/>
    </contour>
    <contour>
      <point x="345" y="809" type="line"/>
      <point x="295" y="-140" type="line"/>
      <point x="316" y="-140" type="line"/>
      <point x="366" y="809" type="line"/>
    </contour>
  </outline>
</glyph>
<glyph name="numero" format="2">
  <advance width="1028"/>
  <unicode hex="2116"/>
  <outline>
    <contour>
      <point x="565" y="690" type="line"/>
      <point x="540" y="690" type="line"/>
      <point x="540" y="112" type="line"/>
      <point x="540" y="82"/>
      <point x="540" y="52"/>
      <point x="540" y="22" type="curve"/>
      <point x="514" y="22" type="line"/>
      <point x="499" y="49"/>
      <point x="485" y="76"/>
      <point x="470" y="103" type="curve"/>
      <point x="176" y="679" type="line" smooth="yes"/>
      <point x="172" y="687"/>
      <point x="166" y="690"/>
      <point x="158" y="690" type="curve" smooth="yes"/>
      <point x="118" y="690" type="line" smooth="yes"/>
      <point x="108" y="690"/>
      <point x="103" y="685"/>
      <point x="103" y="675" type="curve" smooth="yes"/>
      <point x="103" y="0" type="line"/>
      <point x="128" y="0" type="line"/>
      <point x="128" y="599" type="line"/>
      <point x="128" y="622"/>
      <point x="128" y="645"/>
      <point x="128" y="668" type="curve"/>
      <point x="151" y="668" type="line"/>
      <point x="163" y="645"/>
      <point x="176" y="623"/>
      <point x="188" y="600" type="curve"/>
      <point x="489" y="11" type="line" smooth="yes"/>
      <point x="493" y="3"/>
      <point x="499" y="0"/>
      <point x="507" y="0" type="curve" smooth="yes"/>
      <point x="550" y="0" type="line" smooth="yes"/>
      <point x="560" y="0"/>
      <point x="565" y="5"/>
      <point x="565" y="15" type="curve" smooth="yes"/>
    </contour>
    <contour>
      <point x="799" y="424" type="curve" smooth="yes"/>
      <point x="691" y="424"/>
      <point x="654" y="377"/>
      <point x="654" y="255" type="curve" smooth="yes"/>
      <point x="654" y="133"/>
      <point x="691" y="86"/>
      <point x="799" y="86" type="curve" smooth="yes"/>
      <point x="908" y="86"/>
      <point x="945" y="133"/>
      <point x="945" y="255" type="curve" smooth="yes"/>
      <point x="945" y="377"/>
      <point x="908" y="424"/>
    </contour>
    <contour>
      <point x="799" y="403" type="curve" smooth="yes"/>
      <point x="890" y="403"/>
      <point x="919" y="367"/>
      <point x="919" y="255" type="curve" smooth="yes"/>
      <point x="919" y="144"/>
      <point x="890" y="108"/>
      <point x="799" y="108" type="curve" smooth="yes"/>
      <point x="708" y="108"/>
      <point x="679" y="144"/>
      <point x="679" y="255" type="curve" smooth="yes"/>
      <point x="679" y="367"/>
      <point x="708" y="403"/>
    </contour>
    <contour>
      <point x="939" y="21" type="line"/>
      <point x="660" y="21" type="line"/>
      <point x="660" y="-1" type="line"/>
      <point x="939" y="-1" type="line"/>
    </contour>
  </outline>
</glyph>
<glyph name="fi" format="2">
  <advance width="548"/>
  <unicode hex="FB01"/>
  <outline>
    <contour>
      <point x="247" y="714" type="curve" smooth="yes"/>
      <point x="155" y="714"/>
      <point x="122" y="669"/>
      <point x="122" y="581" type="curve" smooth="yes"/>
      <point x="122" y="0" type="line"/>
      <point x="146" y="0" type="line"/>
      <point x="146" y="581" type="line" smooth="yes"/>
      <point x="146" y="663"/>
      <point x="175" y="692"/>
      <point x="255" y="692" type="curve" smooth="yes"/>
      <point x="345" y="692" type="line"/>
      <point x="345" y="710" type="line"/>
      <point x="317" y="713"/>
      <point x="271" y="714"/>
    </contour>
    <contour>
      <point x="441" y="480" type="line"/>
      <point x="128" y="480" type="line"/>
      <point x="35" y="475" type="line"/>
      <point x="35" y="457" type="line"/>
      <point x="441" y="457" type="line"/>
    </contour>
    <contour>
      <point x="450" y="480" type="line"/>
      <point x="426" y="480" type="line"/>
      <point x="426" y="0" type="line"/>
      <point x="450" y="0" type="line"/>
    </contour>
    <contour>
      <point x="443" y="679" type="curve" smooth="yes"/>
      <point x="433" y="679" type="line" smooth="yes"/>
      <point x="425" y="679"/>
      <point x="421" y="675"/>
      <point x="421" y="667" type="curve" smooth="yes"/>
      <point x="421" y="605" type="line" smooth="yes"/>
      <point x="421" y="597"/>
      <point x="425" y="593"/>
      <point x="433" y="593" type="curve" smooth="yes"/>
      <point x="443" y="593" type="line" smooth="yes"/>
      <point x="451" y="593"/>
      <point x="455" y="597"/>
      <point x="455" y="605" type="curve" smooth="yes"/>
      <point x="455" y="667" type="line" smooth="yes"/>
      <point x="455" y="675"/>
      <point x="451" y="679"/>
    </contour>
  </outline>
</glyph>
<glyph name="brevecomb-cy" format="2">
  <anchor x="179" y="480" name="_top"/>
  <outline>
    <contour>
      <point x="291" y="615" type="line"/>
      <point x="291" y="549"/>
      <point x="245" y="511"/>
      <point x="180" y="511" type="curve" smooth="yes"/>
      <point x="113" y="511"/>
      <point x="67" y="549"/>
      <point x="67" y="615" type="curve"/>
      <point x="43" y="615" type="line"/>
      <point x="43" y="544"/>
      <point x="96" y="493"/>
      <point x="180" y="493" type="curve" smooth="yes"/>
      <point x="263" y="493"/>
      <point x="315" y="544"/>
      <point x="315" y="615" type="curve"/>
    </contour>
  </outline>
</glyph>
<glyph name="caron.alt" format="2">
  <advance width="200"/>
  <anchor x="102" y="556" name="_top"/>
  <outline>
    <contour>
      <point x="103" y="697" type="curve" smooth="yes"/>
      <point x="96" y="697" type="line" smooth="yes"/>
      <point x="89" y="697"/>
      <point x="86" y="693"/>
      <point x="87" y="686" type="curve" smooth="yes"/>
      <point x="86" y="631" type="line" smooth="yes"/>
      <point x="85" y="626"/>
      <point x="88" y="622"/>
      <point x="92" y="622" type="curve"/>
      <point x="92" y="578"/>
      <point x="91" y="560"/>
      <point x="88" y="525" type="curve"/>
      <point x="98" y="521" type="line"/>
      <point x="107" y="555"/>
      <point x="112" y="600"/>
      <point x="113" y="631" type="curve" smooth="yes"/>
      <point x="114" y="686" type="line" smooth="yes"/>
      <point x="113" y="693"/>
      <point x="110" y="697"/>
    </contour>
  </outline>
</glyph>
<glyph name="caroncomb.alt" format="2">
  <anchor x="-174" y="556" name="_top"/>
  <outline>
    <contour>
      <point x="-173" y="697" type="curve" smooth="yes"/>
      <point x="-180" y="697" type="line" smooth="yes"/>
      <point x="-187" y="697"/>
      <point x="-190" y="693"/>
      <point x="-189" y="686" type="curve" smooth="yes"/>
      <point x="-190" y="631" type="line" smooth="yes"/>
      <point x="-191" y="626"/>
      <point x="-188" y="622"/>
      <point x="-184" y="622" type="curve"/>
      <point x="-184" y="578"/>
      <point x="-185" y="560"/>
      <point x="-188" y="525" type="curve"/>
      <point x="-178" y="521" type="line"/>
      <point x="-169" y="555"/>
      <point x="-164" y="600"/>
      <point x="-163" y="631" type="curve" smooth="yes"/>
      <point x="-162" y="686" type="line" smooth="yes"/>
      <point x="-163" y="693"/>
      <point x="-166" y="697"/>
    </contour>
  </outline>
</glyph>
<glyph name="carondotaccent" format="2">
  <advance width="392"/>
  <anchor x="195" y="554" name="_top"/>
  <outline>
    <contour>
      <point x="317" y="694" type="line"/>
      <point x="200" y="602" type="line"/>
      <point x="192" y="602" type="line"/>
      <point x="76" y="694" type="line"/>
      <point x="63" y="682" type="line"/>
      <point x="187" y="575" type="line"/>
      <point x="205" y="575" type="line"/>
      <point x="329" y="682" type="line"/>
    </contour>
    <contour>
      <point x="198" y="791" type="curve" smooth="yes"/>
      <point x="188" y="791" type="line" smooth="yes"/>
      <point x="181" y="791"/>
      <point x="178" y="787"/>
      <point x="178" y="780" type="curve" smooth="yes"/>
      <point x="178" y="724" type="line" smooth="yes"/>
      <point x="178" y="717"/>
      <point x="181" y="713"/>
      <point x="188" y="713" type="curve" smooth="yes"/>
      <point x="198" y="713" type="line" smooth="yes"/>
      <point x="205" y="713"/>
      <point x="208" y="717"/>
      <point x="208" y="724" type="curve" smooth="yes"/>
      <point x="208" y="780" type="line" smooth="yes"/>
      <point x="208" y="787"/>
      <point x="205" y="791"/>
    </contour>
  </outline>
</glyph>
<glyph name="horn" format="2">
  <advance width="222"/>
  <anchor x="109" y="561" name="_top"/>
  <outline>
    <contour>
      <point x="54" y="418" type="line"/>
      <point x="117" y="421"/>
      <point x="168" y="469"/>
      <point x="172" y="540" type="curve"/>
      <point x="148" y="545" type="line"/>
      <point x="144" y="482"/>
      <point x="108" y="438"/>
      <point x="50" y="435" type="curve"/>
    </contour>
  </outline>
</glyph>
<glyph name="macronacute" format="2">
  <advance width="400"/>
  <anchor x="200" y="554" name="_top"/>
  <outline>
    <contour>
      <point x="330" y="628" type="line"/>
      <point x="70" y="628" type="line"/>
      <point x="70" y="605" type="line"/>
      <point x="330" y="605" type="line"/>
    </contour>
    <contour>
      <point x="258" y="774" type="line"/>
      <point x="156" y="672" type="line"/>
      <point x="168" y="660" type="line"/>
      <point x="274" y="758" type="line"/>
    </contour>
  </outline>
</glyph>
<glyph name="peseta.rvrn" format="2">
  <advance width="580"/>
  <outline>
    <contour>
      <point x="264" y="698" type="curve" smooth="yes"/>
      <point x="211" y="698"/>
      <point x="173" y="697"/>
      <point x="103" y="690" type="curve"/>
      <point x="117" y="672" type="line"/>
      <point x="144" y="674"/>
      <point x="213" y="675"/>
      <point x="264" y="675" type="curve" smooth="yes"/>
      <point x="391" y="675"/>
      <point x="437" y="638"/>
      <point x="437" y="495" type="curve" smooth="yes"/>
      <point x="437" y="352"/>
      <point x="391" y="315"/>
      <point x="264" y="315" type="curve" smooth="yes"/>
      <point x="245" y="315"/>
      <point x="181" y="315"/>
      <point x="116" y="315" type="curve"/>
      <point x="113" y="297" type="line"/>
      <point x="135" y="295"/>
      <point x="208" y="292"/>
      <point x="264" y="292" type="curve" smooth="yes"/>
      <point x="410" y="292"/>
      <point x="463" y="335"/>
      <point x="463" y="495" type="curve" smooth="yes"/>
      <point x="463" y="653"/>
      <point x="410" y="698"/>
    </contour>
    <contour>
      <point x="120" y="495" type="line"/>
      <point x="8" y="495" type="line"/>
      <point x="8" y="474" type="line"/>
      <point x="120" y="474" type="line"/>
    </contour>
    <contour>
      <point x="450" y="495" type="line"/>
      <point x="450" y="474" type="line"/>
      <point x="554" y="474" type="line"/>
      <point x="562" y="495" type="line"/>
    </contour>
    <contour>
      <point x="128" y="0" type="line"/>
      <point x="128" y="690" type="line"/>
      <point x="103" y="690" type="line"/>
      <point x="103" y="0" type="line"/>
    </contour>
  </outline>
</glyph>
<glyph name="six.osf" format="2">
  <advance width="544"/>
  <outline>
    <contour>
      <point x="316" y="702" type="curve" smooth="yes"/>
      <point x="147" y="702"/>
      <point x="81" y="647"/>
      <point x="81" y="302" type="curve" smooth="yes"/>
      <point x="81" y="76"/>
      <point x="104" y="-12"/>
      <point x="283" y="-12" type="curve" smooth="yes"/>
      <point x="453" y="-12"/>
      <point x="477" y="79"/>
      <point x="477" y="207" type="curve" smooth="yes"/>
      <point x="477" y="374"/>
      <point x="434" y="431"/>
      <point x="300" y="431" type="curve" smooth="yes"/>
      <point x="207" y="431"/>
      <point x="159" y="398"/>
      <point x="95" y="315" type="curve"/>
      <point x="99" y="299" type="line"/>
      <point x="172" y="381"/>
      <point x="222" y="409"/>
      <point x="298" y="409" type="curve" smooth="yes"/>
      <point x="420" y="409"/>
      <point x="452" y="352"/>
      <point x="452" y="210" type="curve" smooth="yes"/>
      <point x="452" y="92"/>
      <point x="431" y="10"/>
      <point x="284" y="10" type="curve" smooth="yes"/>
      <point x="123" y="10"/>
      <point x="107" y="99"/>
      <point x="107" y="299" type="curve" smooth="yes"/>
      <point x="107" y="623"/>
      <point x="157" y="679"/>
      <point x="316" y="679" type="curve" smooth="yes"/>
      <point x="358" y="679"/>
      <point x="393" y="678"/>
      <point x="429" y="672" type="curve"/>
      <point x="437" y="690" type="line"/>
      <point x="391" y="701"/>
      <point x="340" y="702"/>
    </contour>
  </outline>
</glyph>
<glyph name="t_t" format="2">
  <advance width="664"/>
  <outline>
    <contour>
      <point x="145" y="631" type="line"/>
      <point x="121" y="631" type="line"/>
      <point x="121" y="95" type="line" smooth="yes"/>
      <point x="121" y="30"/>
      <point x="157" y="-6"/>
      <point x="231" y="-6" type="curve" smooth="yes"/>
      <point x="248" y="-6"/>
      <point x="289" y="-4"/>
      <point x="316" y="0" type="curve"/>
      <point x="313" y="16" type="line"/>
      <point x="225" y="16" type="line" smooth="yes"/>
      <point x="174" y="16"/>
      <point x="145" y="43"/>
      <point x="145" y="96" type="curve" smooth="yes"/>
    </contour>
    <contour>
      <point x="462" y="631" type="line"/>
      <point x="438" y="631" type="line"/>
      <point x="438" y="95" type="line" smooth="yes"/>
      <point x="438" y="30"/>
      <point x="474" y="-6"/>
      <point x="548" y="-6" type="curve" smooth="yes"/>
      <point x="565" y="-6"/>
      <point x="606" y="-4"/>
      <point x="633" y="0" type="curve"/>
      <point x="630" y="16" type="line"/>
      <point x="542" y="16" type="line" smooth="yes"/>
      <point x="491" y="16"/>
      <point x="462" y="43"/>
      <point x="462" y="96" type="curve" smooth="yes"/>
    </contour>
    <contour>
      <point x="640" y="480" type="line"/>
      <point x="127" y="480" type="line"/>
      <point x="34" y="475" type="line"/>
      <point x="34" y="458" type="line"/>
      <point x="640" y="458" type="line"/>
    </contour>
  </outline>
</glyph>
<glyph name="two.osf" format="2">
  <advance width="497"/>
  <outline>
    <contour>
      <point x="234" y="522" type="curve" smooth="yes"/>
      <point x="178" y="522"/>
      <point x="143" y="518"/>
      <point x="58" y="495" type="curve"/>
      <point x="64" y="477" type="line"/>
      <point x="139" y="495"/>
      <point x="176" y="499"/>
      <point x="239" y="499" type="curve" smooth="yes"/>
      <point x="322" y="499"/>
      <point x="384" y="485"/>
      <point x="388" y="403" type="curve" smooth="yes"/>
      <point x="392" y="322"/>
      <point x="362" y="273"/>
      <point x="274" y="202" type="curve" smooth="yes"/>
      <point x="57" y="28" type="line"/>
      <point x="53" y="25"/>
      <point x="52" y="20"/>
      <point x="52" y="14" type="curve" smooth="yes"/>
      <point x="52" y="0" type="line"/>
      <point x="446" y="0" type="line"/>
      <point x="446" y="22" type="line"/>
      <point x="184" y="22" type="line"/>
      <point x="144" y="22"/>
      <point x="130" y="22"/>
      <point x="90" y="22" type="curve"/>
      <point x="290" y="183" type="line" smooth="yes"/>
      <point x="381" y="256"/>
      <point x="415" y="307"/>
      <point x="415" y="395" type="curve" smooth="yes"/>
      <point x="415" y="498"/>
      <point x="347" y="522"/>
    </contour>
  </outline>
</glyph>
